<?xml version="1.0" encoding="UTF-8" standalone="no"?>
<svg
   width="2106"
   height="97"
   viewBox="0 0 2106 97"
   fill="none"
   version="1.1"
   id="svg235"
   sodipodi:docname="CAPITALS.svg"
   inkscape:version="1.3.2 (091e20e, 2023-11-25, custom)"
   xmlns:inkscape="http://www.inkscape.org/namespaces/inkscape"
   xmlns:sodipodi="http://sodipodi.sourceforge.net/DTD/sodipodi-0.dtd"
   xmlns="http://www.w3.org/2000/svg"
   xmlns:svg="http://www.w3.org/2000/svg">
  <defs
     id="defs235" />
  <sodipodi:namedview
     id="namedview235"
     pagecolor="#ffffff"
     bordercolor="#000000"
     borderopacity="0.25"
     inkscape:showpageshadow="2"
     inkscape:pageopacity="0.0"
     inkscape:pagecheckerboard="0"
     inkscape:deskcolor="#d1d1d1"
     inkscape:zoom="0.13782051"
     inkscape:cx="-5619.6279"
     inkscape:cy="-7.2558139"
     inkscape:window-width="1419"
     inkscape:window-height="1000"
     inkscape:window-x="-7"
     inkscape:window-y="0"
     inkscape:window-maximized="0"
     inkscape:current-layer="svg235" />
  <path
     id="rect1"
     style="fill:#000000;fill-opacity:1;stroke-width:9.27837"
     d="M 2667.4336 -401.5 C 2641.7326 -401.5 2621.041 -380.80843 2621.041 -355.10742 L 2621.041 -327.27344 C 2621.041 -301.57243 2641.7326 -280.88086 2667.4336 -280.88086 L 3038.5664 -280.88086 C 3064.2674 -280.88086 3084.959 -301.57243 3084.959 -327.27344 L 3084.959 -355.10742 C 3084.959 -380.80843 3064.2674 -401.5 3038.5664 -401.5 L 2667.4336 -401.5 z M 2667.4336 -271.60352 C 2641.7326 -271.60352 2621.041 -250.91194 2621.041 -225.21094 L 2621.041 -197.37695 C 2621.041 -171.67595 2641.7326 -150.98438 2667.4336 -150.98438 L 2760.2168 -150.98438 C 2785.9178 -150.98438 2806.6074 -171.67595 2806.6074 -197.37695 L 2806.6074 -225.21094 C 2806.6074 -250.91194 2785.9178 -271.60352 2760.2168 -271.60352 L 2667.4336 -271.60352 z M 3038.5664 -271.60352 C 3012.8654 -271.60352 2992.1758 -250.91194 2992.1758 -225.21094 L 2992.1758 -197.37695 C 2992.1758 -171.67595 3012.8654 -150.98438 3038.5664 -150.98438 L 3131.3496 -150.98438 C 3157.0506 -150.98438 3177.7422 -171.67595 3177.7422 -197.37695 L 3177.7422 -225.21094 C 3177.7422 -250.91194 3157.0506 -271.60352 3131.3496 -271.60352 L 3038.5664 -271.60352 z M 2667.4336 -141.70703 C 2641.7326 -141.70703 2621.041 -121.01546 2621.041 -95.314453 L 2621.041 -67.478516 C 2621.041 -41.777512 2641.7326 -21.087891 2667.4336 -21.087891 L 2760.2168 -21.087891 C 2785.9178 -21.087891 2806.6074 -41.777512 2806.6074 -67.478516 L 2806.6074 -95.314453 C 2806.6074 -121.01546 2785.9178 -141.70703 2760.2168 -141.70703 L 2667.4336 -141.70703 z M 3038.5664 -141.70703 C 3012.8654 -141.70703 2992.1758 -121.01546 2992.1758 -95.314453 L 2992.1758 -67.478516 C 2992.1758 -41.777512 3012.8654 -21.087891 3038.5664 -21.087891 L 3131.3496 -21.087891 C 3157.0506 -21.087891 3177.7422 -41.777512 3177.7422 -67.478516 L 3177.7422 -95.314453 C 3177.7422 -121.01546 3157.0506 -141.70703 3131.3496 -141.70703 L 3038.5664 -141.70703 z M 2667.4336 -11.808594 C 2641.7326 -11.808594 2621.041 8.8810273 2621.041 34.582031 L 2621.041 62.417969 C 2621.041 88.118973 2641.7326 108.80859 2667.4336 108.80859 L 3038.5664 108.80859 C 3064.2674 108.80859 3084.959 88.118973 3084.959 62.417969 L 3084.959 34.582031 C 3084.959 8.8810273 3064.2674 -11.808594 3038.5664 -11.808594 L 2667.4336 -11.808594 z M 2667.4336 118.08789 C 2641.7326 118.08789 2621.041 138.77751 2621.041 164.47852 L 2621.041 192.31445 C 2621.041 218.01546 2641.7326 238.70703 2667.4336 238.70703 L 2760.2168 238.70703 C 2785.9178 238.70703 2806.6074 218.01546 2806.6074 192.31445 L 2806.6074 164.47852 C 2806.6074 138.77751 2785.9178 118.08789 2760.2168 118.08789 L 2667.4336 118.08789 z M 2667.4336 247.98438 C 2641.7326 247.98438 2621.041 268.67595 2621.041 294.37695 L 2621.041 322.21094 C 2621.041 347.91194 2641.7326 368.60352 2667.4336 368.60352 L 2760.2168 368.60352 C 2785.9178 368.60352 2806.6074 347.91194 2806.6074 322.21094 L 2806.6074 294.37695 C 2806.6074 268.67595 2785.9178 247.98438 2760.2168 247.98438 L 2667.4336 247.98438 z " />
  <path
     id="rect9"
     style="fill:#000000;fill-opacity:1;stroke-width:9.27837"
     d="M 4170.5254 -401.5 C 4144.8244 -401.5 4124.1328 -380.80843 4124.1328 -355.10742 L 4124.1328 -327.27344 C 4124.1328 -301.57243 4144.8244 -280.88086 4170.5254 -280.88086 L 4541.6602 -280.88086 C 4567.3612 -280.88086 4588.0508 -301.57243 4588.0508 -327.27344 L 4588.0508 -355.10742 C 4588.0508 -380.80843 4567.3612 -401.5 4541.6602 -401.5 L 4170.5254 -401.5 z M 4170.5254 -271.60352 C 4144.8244 -271.60352 4124.1328 -250.91194 4124.1328 -225.21094 L 4124.1328 -197.37695 C 4124.1328 -171.67595 4144.8244 -150.98438 4170.5254 -150.98438 L 4263.3086 -150.98438 C 4289.0096 -150.98438 4309.7012 -171.67595 4309.7012 -197.37695 L 4309.7012 -225.21094 C 4309.7012 -250.91194 4289.0096 -271.60352 4263.3086 -271.60352 L 4170.5254 -271.60352 z M 4541.6602 -271.60352 C 4515.9592 -271.60352 4495.2676 -250.91194 4495.2676 -225.21094 L 4495.2676 -197.37695 C 4495.2676 -171.67595 4515.9592 -150.98438 4541.6602 -150.98438 L 4634.4434 -150.98438 C 4660.1444 -150.98438 4680.8359 -171.67595 4680.8359 -197.37695 L 4680.8359 -225.21094 C 4680.8359 -250.91194 4660.1444 -271.60352 4634.4434 -271.60352 L 4541.6602 -271.60352 z M 4170.5254 -141.70703 C 4144.8244 -141.70703 4124.1328 -121.01546 4124.1328 -95.314453 L 4124.1328 -67.478516 C 4124.1328 -41.777512 4144.8244 -21.087891 4170.5254 -21.087891 L 4263.3086 -21.087891 C 4289.0096 -21.087891 4309.7012 -41.777512 4309.7012 -67.478516 L 4309.7012 -95.314453 C 4309.7012 -121.01546 4289.0096 -141.70703 4263.3086 -141.70703 L 4170.5254 -141.70703 z M 4541.6602 -141.70703 C 4515.9592 -141.70703 4495.2676 -121.01546 4495.2676 -95.314453 L 4495.2676 -67.478516 C 4495.2676 -41.777512 4515.9592 -21.087891 4541.6602 -21.087891 L 4634.4434 -21.087891 C 4660.1444 -21.087891 4680.8359 -41.777512 4680.8359 -67.478516 L 4680.8359 -95.314453 C 4680.8359 -121.01546 4660.1444 -141.70703 4634.4434 -141.70703 L 4541.6602 -141.70703 z M 4170.5254 -11.808594 C 4144.8244 -11.808594 4124.1328 8.8810273 4124.1328 34.582031 L 4124.1328 62.417969 C 4124.1328 88.118973 4144.8244 108.80859 4170.5254 108.80859 L 4541.6602 108.80859 C 4567.3612 108.80859 4588.0508 88.118973 4588.0508 62.417969 L 4588.0508 34.582031 C 4588.0508 8.8810273 4567.3612 -11.808594 4541.6602 -11.808594 L 4170.5254 -11.808594 z M 4170.5254 118.08789 C 4144.8244 118.08789 4124.1328 138.77751 4124.1328 164.47852 L 4124.1328 192.31445 C 4124.1328 218.01546 4144.8244 238.70703 4170.5254 238.70703 L 4263.3086 238.70703 C 4289.0096 238.70703 4309.7012 218.01546 4309.7012 192.31445 L 4309.7012 164.47852 C 4309.7012 138.77751 4289.0096 118.08789 4263.3086 118.08789 L 4170.5254 118.08789 z M 4448.877 118.08789 C 4423.1759 118.08789 4402.4844 138.77751 4402.4844 164.47852 L 4402.4844 192.31445 C 4402.4844 218.01546 4423.1759 238.70703 4448.877 238.70703 L 4541.6602 238.70703 C 4567.3612 238.70703 4588.0508 218.01546 4588.0508 192.31445 L 4588.0508 164.47852 C 4588.0508 138.77751 4567.3612 118.08789 4541.6602 118.08789 L 4448.877 118.08789 z M 4170.5254 247.98438 C 4144.8244 247.98438 4124.1328 268.67595 4124.1328 294.37695 L 4124.1328 322.21094 C 4124.1328 347.91194 4144.8244 368.60352 4170.5254 368.60352 L 4263.3086 368.60352 C 4289.0096 368.60352 4309.7012 347.91194 4309.7012 322.21094 L 4309.7012 294.37695 C 4309.7012 268.67595 4289.0096 247.98438 4263.3086 247.98438 L 4170.5254 247.98438 z M 4541.6602 247.98438 C 4515.9592 247.98438 4495.2676 268.67595 4495.2676 294.37695 L 4495.2676 322.21094 C 4495.2676 347.91194 4515.9592 368.60352 4541.6602 368.60352 L 4634.4434 368.60352 C 4660.1444 368.60352 4680.8359 347.91194 4680.8359 322.21094 L 4680.8359 294.37695 C 4680.8359 268.67595 4660.1444 247.98438 4634.4434 247.98438 L 4541.6602 247.98438 z " />
  <path
     id="rect19"
     style="fill:#000000;fill-opacity:1;stroke-width:9.27837"
     d="M 5014.8555 -401.5 C 4989.1545 -401.5 4968.4648 -380.80843 4968.4648 -355.10742 L 4968.4648 -327.27344 C 4968.4648 -301.57243 4989.1545 -280.88086 5014.8555 -280.88086 L 5385.9902 -280.88086 C 5411.6912 -280.88086 5432.3828 -301.57243 5432.3828 -327.27344 L 5432.3828 -355.10742 C 5432.3828 -380.80843 5411.6912 -401.5 5385.9902 -401.5 L 5014.8555 -401.5 z M 4922.0723 -271.60352 C 4896.3713 -271.60352 4875.6797 -250.91194 4875.6797 -225.21094 L 4875.6797 -197.37695 C 4875.6797 -171.67595 4896.3713 -150.98438 4922.0723 -150.98438 L 5014.8555 -150.98438 C 5040.5565 -150.98438 5061.248 -171.67595 5061.248 -197.37695 L 5061.248 -225.21094 C 5061.248 -250.91194 5040.5565 -271.60352 5014.8555 -271.60352 L 4922.0723 -271.60352 z M 5014.8555 -141.70703 C 4989.1545 -141.70703 4968.4648 -121.01546 4968.4648 -95.314453 L 4968.4648 -67.478516 C 4968.4648 -41.777512 4989.1545 -21.087891 5014.8555 -21.087891 L 5293.207 -21.087891 C 5318.908 -21.087891 5339.5977 -41.777512 5339.5977 -67.478516 L 5339.5977 -95.314453 C 5339.5977 -121.01546 5318.908 -141.70703 5293.207 -141.70703 L 5014.8555 -141.70703 z M 5293.207 -11.808594 C 5267.506 -11.808594 5246.8145 8.8810273 5246.8145 34.582031 L 5246.8145 62.417969 C 5246.8145 88.118973 5267.506 108.80859 5293.207 108.80859 L 5385.9902 108.80859 C 5411.6912 108.80859 5432.3809 88.118973 5432.3809 62.417969 L 5432.3809 34.582031 C 5432.3809 8.8810273 5411.6912 -11.808594 5385.9902 -11.808594 L 5293.207 -11.808594 z M 4922.0723 118.08789 C 4896.3713 118.08789 4875.6797 138.77751 4875.6797 164.47852 L 4875.6797 192.31445 C 4875.6797 218.01546 4896.3713 238.70703 4922.0723 238.70703 L 5014.8555 238.70703 C 5040.5565 238.70703 5061.248 218.01546 5061.248 192.31445 L 5061.248 164.47852 C 5061.248 138.77751 5040.5565 118.08789 5014.8555 118.08789 L 4922.0723 118.08789 z M 5293.207 118.08789 C 5267.506 118.08789 5246.8145 138.77751 5246.8145 164.47852 L 5246.8145 192.31445 C 5246.8145 218.01546 5267.506 238.70703 5293.207 238.70703 L 5385.9902 238.70703 C 5411.6912 238.70703 5432.3809 218.01546 5432.3809 192.31445 L 5432.3809 164.47852 C 5432.3809 138.77751 5411.6912 118.08789 5385.9902 118.08789 L 5293.207 118.08789 z M 5014.8555 247.98438 C 4989.1545 247.98438 4968.4648 268.67595 4968.4648 294.37695 L 4968.4648 322.21094 C 4968.4648 347.91194 4989.1545 368.60352 5014.8555 368.60352 L 5293.207 368.60352 C 5318.908 368.60352 5339.5977 347.91194 5339.5977 322.21094 L 5339.5977 294.37695 C 5339.5977 268.67595 5318.908 247.98438 5293.207 247.98438 L 5014.8555 247.98438 z " />
  <path
     id="rect26"
     style="fill:#000000;fill-opacity:1;stroke-width:9.27837"
     d="M 3511.7637 -401.5 C 3486.0627 -401.5 3465.3711 -380.80843 3465.3711 -355.10742 L 3465.3711 -327.27344 C 3465.3711 -301.57243 3486.0627 -280.88086 3511.7637 -280.88086 L 3790.1133 -280.88086 C 3815.8143 -280.88086 3836.5059 -301.57243 3836.5059 -327.27344 L 3836.5059 -355.10742 C 3836.5059 -380.80843 3815.8143 -401.5 3790.1133 -401.5 L 3511.7637 -401.5 z M 3418.9785 -271.60352 C 3393.2775 -271.60352 3372.5879 -250.91194 3372.5879 -225.21094 L 3372.5879 -197.37695 C 3372.5879 -171.67595 3393.2775 -150.98438 3418.9785 -150.98438 L 3511.7637 -150.98438 C 3537.4647 -150.98438 3558.1543 -171.67595 3558.1543 -197.37695 L 3558.1543 -225.21094 C 3558.1543 -250.91194 3537.4647 -271.60352 3511.7637 -271.60352 L 3418.9785 -271.60352 z M 3790.1133 -271.60352 C 3764.4123 -271.60352 3743.7227 -250.91194 3743.7227 -225.21094 L 3743.7227 -197.37695 C 3743.7227 -171.67595 3764.4123 -150.98438 3790.1133 -150.98438 L 3882.8965 -150.98438 C 3908.5975 -150.98438 3929.2891 -171.67595 3929.2891 -197.37695 L 3929.2891 -225.21094 C 3929.2891 -250.91194 3908.5975 -271.60352 3882.8965 -271.60352 L 3790.1133 -271.60352 z M 3418.9785 -141.70703 C 3393.2775 -141.70703 3372.5879 -121.01546 3372.5879 -95.314453 L 3372.5879 -67.478516 C 3372.5879 -41.777512 3393.2775 -21.087891 3418.9785 -21.087891 L 3511.7637 -21.087891 C 3537.4647 -21.087891 3558.1543 -41.777512 3558.1543 -67.478516 L 3558.1543 -95.314453 C 3558.1543 -121.01546 3537.4647 -141.70703 3511.7637 -141.70703 L 3418.9785 -141.70703 z M 3790.1133 -141.70703 C 3764.4123 -141.70703 3743.7227 -121.01546 3743.7227 -95.314453 L 3743.7227 -67.478516 C 3743.7227 -41.777512 3764.4123 -21.087891 3790.1133 -21.087891 L 3882.8965 -21.087891 C 3908.5975 -21.087891 3929.2891 -41.777512 3929.2891 -67.478516 L 3929.2891 -95.314453 C 3929.2891 -121.01546 3908.5975 -141.70703 3882.8965 -141.70703 L 3790.1133 -141.70703 z M 3418.9785 -11.808594 C 3393.2775 -11.808594 3372.5879 8.8810273 3372.5879 34.582031 L 3372.5879 62.417969 C 3372.5879 88.118973 3393.2775 108.80859 3418.9785 108.80859 L 3511.7637 108.80859 C 3537.4647 108.80859 3558.1543 88.118973 3558.1543 62.417969 L 3558.1543 34.582031 C 3558.1543 8.8810273 3537.4647 -11.808594 3511.7637 -11.808594 L 3418.9785 -11.808594 z M 3790.1133 -11.808594 C 3764.4123 -11.808594 3743.7227 8.8810273 3743.7227 34.582031 L 3743.7227 62.417969 C 3743.7227 88.118973 3764.4123 108.80859 3790.1133 108.80859 L 3882.8965 108.80859 C 3908.5975 108.80859 3929.2891 88.118973 3929.2891 62.417969 L 3929.2891 34.582031 C 3929.2891 8.8810273 3908.5975 -11.808594 3882.8965 -11.808594 L 3790.1133 -11.808594 z M 3418.9785 118.08789 C 3393.2775 118.08789 3372.5879 138.77751 3372.5879 164.47852 L 3372.5879 192.31445 C 3372.5879 218.01546 3393.2775 238.70703 3418.9785 238.70703 L 3511.7637 238.70703 C 3537.4647 238.70703 3558.1543 218.01546 3558.1543 192.31445 L 3558.1543 164.47852 C 3558.1543 138.77751 3537.4647 118.08789 3511.7637 118.08789 L 3418.9785 118.08789 z M 3790.1133 118.08789 C 3764.4123 118.08789 3743.7227 138.77751 3743.7227 164.47852 L 3743.7227 192.31445 C 3743.7227 218.01546 3764.4123 238.70703 3790.1133 238.70703 L 3882.8965 238.70703 C 3908.5975 238.70703 3929.2891 218.01546 3929.2891 192.31445 L 3929.2891 164.47852 C 3929.2891 138.77751 3908.5975 118.08789 3882.8965 118.08789 L 3790.1133 118.08789 z M 3511.7637 247.98438 C 3486.0627 247.98438 3465.3711 268.67595 3465.3711 294.37695 L 3465.3711 322.21094 C 3465.3711 347.91194 3486.0627 368.60352 3511.7637 368.60352 L 3790.1133 368.60352 C 3815.8143 368.60352 3836.5059 347.91194 3836.5059 322.21094 L 3836.5059 294.37695 C 3836.5059 268.67595 3815.8143 247.98438 3790.1133 247.98438 L 3511.7637 247.98438 z M 3790.1133 377.88086 C 3764.4123 377.88086 3743.7227 398.57243 3743.7227 424.27344 L 3743.7227 452.10742 C 3743.7227 477.80843 3764.4123 498.5 3790.1133 498.5 L 3882.8965 498.5 C 3908.5975 498.5 3929.2891 477.80843 3929.2891 452.10742 L 3929.2891 424.27344 C 3929.2891 398.57243 3908.5975 377.88086 3882.8965 377.88086 L 3790.1133 377.88086 z " />
  <path
     id="path36"
     style="fill:#000000;fill-opacity:1;stroke-width:9.27837"
     d="m -8670.7108,-401.50001 c -25.7011,0 -46.3923,20.69118 -46.3923,46.3922 v 27.83495 c 0,25.70101 20.6912,46.39219 46.3923,46.39219 h 463.9165 c 25.701,0 46.3922,-20.69118 46.3922,-46.39219 v -27.83495 c 0,-25.70102 -20.6912,-46.3922 -46.3922,-46.3922 z m 0,129.89708 c -25.7011,0 -46.3923,20.69118 -46.3923,46.39218 v 27.83497 c 0,25.701 20.6912,46.39043 46.3923,46.39043 h 92.7826 c 25.7009,0 46.3921,-20.68943 46.3921,-46.39043 v -27.83497 c 0,-25.701 -20.6912,-46.39218 -46.3921,-46.39218 z m 371.1339,0 c -25.701,0 -46.3922,20.69118 -46.3922,46.39218 v 27.83497 c 0,25.701 20.6912,46.39043 46.3922,46.39043 h 92.7826 c 25.701,0 46.3922,-20.68943 46.3922,-46.39043 v -27.83497 c 0,-25.701 -20.6912,-46.39218 -46.3922,-46.39218 z m -371.1339,129.89707 c -25.7011,0 -46.3923,20.69118 -46.3923,46.392184 v 27.834963 c 0,25.701004 20.6912,46.39043 46.3923,46.39043 h 92.7826 c 25.7009,0 46.3921,-20.689426 46.3921,-46.39043 v -27.834963 c 0,-25.701004 -20.6912,-46.392184 -46.3921,-46.392184 z m 371.1339,0 c -25.6212,0 -46.3922,20.77097 -46.3922,46.392184 v 27.834963 c 0,25.621211 20.771,46.39043 46.3922,46.39043 h 92.7826 c 25.6212,-1e-6 46.3922,-20.769219 46.3922,-46.39043 v -27.834963 c 0,-25.621214 -20.771,-46.392184 -46.3922,-46.392184 z m -371.1339,129.897069 c -25.7011,0 -46.3923,20.6894257 -46.3923,46.39043 v 27.83672 c 0,25.701005 20.6912,46.390431 46.3923,46.390431 h 463.9165 c 25.701,0 46.3922,-20.689426 46.3922,-46.390431 v -27.83672 c 0,-25.7010043 -20.6912,-46.39043 -46.3922,-46.39043 z m 0,129.897071 c -25.7011,0 -46.3923,20.68942 -46.3923,46.39043 v 27.83496 c 0,25.70101 20.6912,46.39219 46.3923,46.39219 h 92.7826 c 25.7009,0 46.3921,-20.69118 46.3921,-46.39219 v -27.83496 c 0,-25.70101 -20.6912,-46.39043 -46.3921,-46.39043 z m 371.1339,0 c -25.701,0 -46.3922,20.68942 -46.3922,46.39043 v 27.83496 c 0,25.70101 20.6912,46.39219 46.3922,46.39219 h 92.7826 c 25.701,0 46.3922,-20.69118 46.3922,-46.39219 v -27.83496 c 0,-25.70101 -20.6912,-46.39043 -46.3922,-46.39043 z m -371.1339,129.89707 c -25.7011,0 -46.3923,20.68943 -46.3923,46.39043 v 27.83497 c 0,25.701 20.6912,46.39218 46.3923,46.39218 h 92.7826 c 25.7009,0 46.3921,-20.69118 46.3921,-46.39218 v -27.83497 c 0,-25.701 -20.6912,-46.39043 -46.3921,-46.39043 z m 371.1339,0 c -25.701,0 -46.3922,20.68943 -46.3922,46.39043 v 27.83497 c 0,25.701 20.6912,46.39218 46.3922,46.39218 h 92.7826 c 25.701,0 46.3922,-20.69118 46.3922,-46.39218 v -27.83497 c 0,-25.701 -20.6912,-46.39043 -46.3922,-46.39043 z" />
  <path
     id="rect46"
     style="fill:#000000;fill-opacity:1;stroke-width:9.27837"
     d="M -7919.1641 -401.5 C -7944.8651 -401.5 -7965.5566 -380.80843 -7965.5566 -355.10742 L -7965.5566 -327.27344 C -7965.5566 -301.57243 -7944.8651 -280.88086 -7919.1641 -280.88086 L -7548.0312 -280.88086 C -7522.3302 -280.88086 -7501.6387 -301.57243 -7501.6387 -327.27344 L -7501.6387 -355.10742 C -7501.6387 -380.80843 -7522.3302 -401.5 -7548.0312 -401.5 L -7919.1641 -401.5 z M -7919.1641 -271.60352 C -7944.8651 -271.60352 -7965.5566 -250.91194 -7965.5566 -225.21094 L -7965.5566 -197.37695 C -7965.5566 -171.67595 -7944.8651 -150.98438 -7919.1641 -150.98438 L -7826.3809 -150.98438 C -7800.6799 -150.98438 -7779.9902 -171.67595 -7779.9902 -197.37695 L -7779.9902 -225.21094 C -7779.9902 -250.91194 -7800.6799 -271.60352 -7826.3809 -271.60352 L -7919.1641 -271.60352 z M -7548.0312 -271.60352 C -7573.7323 -271.60352 -7594.4219 -250.91194 -7594.4219 -225.21094 L -7594.4219 -197.37695 C -7594.4219 -171.67595 -7573.7323 -150.98438 -7548.0312 -150.98438 L -7455.248 -150.98438 C -7429.547 -150.98438 -7408.8555 -171.67595 -7408.8555 -197.37695 L -7408.8555 -225.21094 C -7408.8555 -250.91194 -7429.547 -271.60352 -7455.248 -271.60352 L -7548.0312 -271.60352 z M -7919.1641 -141.70703 C -7944.8651 -141.70703 -7965.5566 -121.01546 -7965.5566 -95.314453 L -7965.5566 -67.478516 C -7965.5566 -41.777512 -7944.8651 -21.087891 -7919.1641 -21.087891 L -7548.0312 -21.087891 C -7522.3302 -21.087891 -7501.6387 -41.777512 -7501.6387 -67.478516 L -7501.6387 -95.314453 C -7501.6387 -121.01546 -7522.3302 -141.70703 -7548.0312 -141.70703 L -7919.1641 -141.70703 z M -7919.1641 -11.808594 C -7944.8651 -11.808594 -7965.5566 8.8810273 -7965.5566 34.582031 L -7965.5566 62.417969 C -7965.5566 88.118973 -7944.8651 108.80859 -7919.1641 108.80859 L -7826.3809 108.80859 C -7800.6799 108.80859 -7779.9902 88.118973 -7779.9902 62.417969 L -7779.9902 34.582031 C -7779.9902 8.8810273 -7800.6799 -11.808594 -7826.3809 -11.808594 L -7919.1641 -11.808594 z M -7548.0312 -11.808594 C -7573.7323 -11.808594 -7594.4219 8.8810273 -7594.4219 34.582031 L -7594.4219 62.417969 C -7594.4219 88.118973 -7573.7323 108.80859 -7548.0312 108.80859 L -7455.248 108.80859 C -7429.547 108.80859 -7408.8555 88.118973 -7408.8555 62.417969 L -7408.8555 34.582031 C -7408.8555 8.8810273 -7429.547 -11.808594 -7455.248 -11.808594 L -7548.0312 -11.808594 z M -7919.1641 118.08789 C -7944.8651 118.08789 -7965.5566 138.77751 -7965.5566 164.47852 L -7965.5566 192.31445 C -7965.5566 218.01546 -7944.8651 238.70703 -7919.1641 238.70703 L -7826.3809 238.70703 C -7800.6799 238.70703 -7779.9902 218.01546 -7779.9902 192.31445 L -7779.9902 164.47852 C -7779.9902 138.77751 -7800.6799 118.08789 -7826.3809 118.08789 L -7919.1641 118.08789 z M -7548.0312 118.08789 C -7573.7323 118.08789 -7594.4219 138.77751 -7594.4219 164.47852 L -7594.4219 192.31445 C -7594.4219 218.01546 -7573.7323 238.70703 -7548.0312 238.70703 L -7455.248 238.70703 C -7429.547 238.70703 -7408.8555 218.01546 -7408.8555 192.31445 L -7408.8555 164.47852 C -7408.8555 138.77751 -7429.547 118.08789 -7455.248 118.08789 L -7548.0312 118.08789 z M -7919.1641 247.98438 C -7944.8651 247.98438 -7965.5566 268.67595 -7965.5566 294.37695 L -7965.5566 322.21094 C -7965.5566 347.91194 -7944.8651 368.60352 -7919.1641 368.60352 L -7548.0312 368.60352 C -7522.3302 368.60352 -7501.6387 347.91194 -7501.6387 322.21094 L -7501.6387 294.37695 C -7501.6387 268.67595 -7522.3302 247.98438 -7548.0312 247.98438 L -7919.1641 247.98438 z " />
  <path
     id="rect55"
     style="fill:#000000;fill-opacity:1;stroke-width:9.27837"
     d="M -6416.0723 -401.5 C -6441.7733 -401.5 -6462.4648 -380.80843 -6462.4648 -355.10742 L -6462.4648 -327.27344 C -6462.4648 -301.57243 -6441.7733 -280.88086 -6416.0723 -280.88086 L -6044.9395 -280.88086 C -6019.2384 -280.88086 -5998.5469 -301.57243 -5998.5469 -327.27344 L -5998.5469 -355.10742 C -5998.5469 -380.80843 -6019.2384 -401.5 -6044.9395 -401.5 L -6416.0723 -401.5 z M -6416.0723 -271.60352 C -6441.7733 -271.60352 -6462.4648 -250.91194 -6462.4648 -225.21094 L -6462.4648 -197.37695 C -6462.4648 -171.67595 -6441.7733 -150.98438 -6416.0723 -150.98438 L -6323.2891 -150.98438 C -6297.5881 -150.98438 -6276.8965 -171.67595 -6276.8965 -197.37695 L -6276.8965 -225.21094 C -6276.8965 -250.91194 -6297.5881 -271.60352 -6323.2891 -271.60352 L -6416.0723 -271.60352 z M -6044.9375 -271.60352 C -6070.6385 -271.60352 -6091.3301 -250.91194 -6091.3301 -225.21094 L -6091.3301 -197.37695 C -6091.3301 -171.67595 -6070.6385 -150.98438 -6044.9375 -150.98438 L -5952.1543 -150.98438 C -5926.4533 -150.98438 -5905.7637 -171.67595 -5905.7637 -197.37695 L -5905.7637 -225.21094 C -5905.7637 -250.91194 -5926.4533 -271.60352 -5952.1543 -271.60352 L -6044.9375 -271.60352 z M -6416.0723 -141.70703 C -6441.7733 -141.70703 -6462.4648 -121.01546 -6462.4648 -95.314453 L -6462.4648 -67.478516 C -6462.4648 -41.777512 -6441.7733 -21.087891 -6416.0723 -21.087891 L -6323.2891 -21.087891 C -6297.5881 -21.087891 -6276.8965 -41.777512 -6276.8965 -67.478516 L -6276.8965 -95.314453 C -6276.8965 -121.01546 -6297.5881 -141.70703 -6323.2891 -141.70703 L -6416.0723 -141.70703 z M -6044.9375 -141.70703 C -6070.6385 -141.70703 -6091.3301 -121.01546 -6091.3301 -95.314453 L -6091.3301 -67.478516 C -6091.3301 -41.777512 -6070.6385 -21.087891 -6044.9375 -21.087891 L -5952.1543 -21.087891 C -5926.4533 -21.087891 -5905.7637 -41.777512 -5905.7637 -67.478516 L -5905.7637 -95.314453 C -5905.7637 -121.01546 -5926.4533 -141.70703 -5952.1543 -141.70703 L -6044.9375 -141.70703 z M -6416.0723 -11.808594 C -6441.7733 -11.808594 -6462.4648 8.8810273 -6462.4648 34.582031 L -6462.4648 62.417969 C -6462.4648 88.118973 -6441.7733 108.80859 -6416.0723 108.80859 L -6323.2891 108.80859 C -6297.5881 108.80859 -6276.8965 88.118973 -6276.8965 62.417969 L -6276.8965 34.582031 C -6276.8965 8.8810273 -6297.5881 -11.808594 -6323.2891 -11.808594 L -6416.0723 -11.808594 z M -6044.9375 -11.808594 C -6070.6385 -11.808594 -6091.3301 8.8810273 -6091.3301 34.582031 L -6091.3301 62.417969 C -6091.3301 88.118973 -6070.6385 108.80859 -6044.9375 108.80859 L -5952.1543 108.80859 C -5926.4533 108.80859 -5905.7637 88.118973 -5905.7637 62.417969 L -5905.7637 34.582031 C -5905.7637 8.8810273 -5926.4533 -11.808594 -5952.1543 -11.808594 L -6044.9375 -11.808594 z M -6416.0723 118.08789 C -6441.7733 118.08789 -6462.4648 138.77751 -6462.4648 164.47852 L -6462.4648 192.31445 C -6462.4648 218.01546 -6441.7733 238.70703 -6416.0723 238.70703 L -6323.2891 238.70703 C -6297.5881 238.70703 -6276.8965 218.01546 -6276.8965 192.31445 L -6276.8965 164.47852 C -6276.8965 138.77751 -6297.5881 118.08789 -6323.2891 118.08789 L -6416.0723 118.08789 z M -6044.9375 118.08789 C -6070.6385 118.08789 -6091.3301 138.77751 -6091.3301 164.47852 L -6091.3301 192.31445 C -6091.3301 218.01546 -6070.6385 238.70703 -6044.9375 238.70703 L -5952.1543 238.70703 C -5926.4533 238.70703 -5905.7637 218.01546 -5905.7637 192.31445 L -5905.7637 164.47852 C -5905.7637 138.77751 -5926.4533 118.08789 -5952.1543 118.08789 L -6044.9375 118.08789 z M -6416.0723 247.98438 C -6441.7733 247.98438 -6462.4648 268.67595 -6462.4648 294.37695 L -6462.4648 322.21094 C -6462.4648 347.91194 -6441.7733 368.60352 -6416.0723 368.60352 L -6044.9395 368.60352 C -6019.2384 368.60352 -5998.5469 347.91194 -5998.5469 322.21094 L -5998.5469 294.37695 C -5998.5469 268.67595 -6019.2384 247.98438 -6044.9395 247.98438 L -6416.0723 247.98438 z " />
  <path
     id="rect65"
     style="fill:#000000;fill-opacity:1;stroke-width:9.27837"
     d="M -5664.5254 -401.5 C -5690.2264 -401.5 -5710.918 -380.80843 -5710.918 -355.10742 L -5710.918 -327.27344 C -5710.918 -301.57243 -5690.2264 -280.88086 -5664.5254 -280.88086 L -5200.6074 -280.88086 C -5174.9064 -280.88086 -5154.2168 -301.57243 -5154.2168 -327.27344 L -5154.2168 -355.10742 C -5154.2168 -380.80843 -5174.9064 -401.5 -5200.6074 -401.5 L -5664.5254 -401.5 z M -5664.5254 -271.60352 C -5690.2264 -271.60352 -5710.918 -250.91194 -5710.918 -225.21094 L -5710.918 -197.37695 C -5710.918 -171.67595 -5690.2264 -150.98438 -5664.5254 -150.98438 L -5571.7422 -150.98438 C -5546.0412 -150.98438 -5525.3496 -171.67595 -5525.3496 -197.37695 L -5525.3496 -225.21094 C -5525.3496 -250.91194 -5546.0412 -271.60352 -5571.7422 -271.60352 L -5664.5254 -271.60352 z M -5664.5254 -141.70703 C -5690.2264 -141.70703 -5710.918 -121.01546 -5710.918 -95.314453 L -5710.918 -67.478516 C -5710.918 -41.777512 -5690.2264 -21.087891 -5664.5254 -21.087891 L -5404.7324 -21.087891 C -5379.0314 -21.087891 -5358.3398 -41.777512 -5358.3398 -67.478516 L -5358.3398 -95.314453 C -5358.3398 -121.01546 -5379.0314 -141.70703 -5404.7324 -141.70703 L -5664.5254 -141.70703 z M -5664.5254 -11.808594 C -5690.2264 -11.808594 -5710.918 8.8810273 -5710.918 34.582031 L -5710.918 62.417969 C -5710.918 88.118973 -5690.2264 108.80859 -5664.5254 108.80859 L -5571.7422 108.80859 C -5546.0412 108.80859 -5525.3496 88.118973 -5525.3496 62.417969 L -5525.3496 34.582031 C -5525.3496 8.8810273 -5546.0412 -11.808594 -5571.7422 -11.808594 L -5664.5254 -11.808594 z M -5664.5254 118.08789 C -5690.2264 118.08789 -5710.918 138.77751 -5710.918 164.47852 L -5710.918 192.31445 C -5710.918 218.01546 -5690.2264 238.70703 -5664.5254 238.70703 L -5571.7422 238.70703 C -5546.0412 238.70703 -5525.3496 218.01546 -5525.3496 192.31445 L -5525.3496 164.47852 C -5525.3496 138.77751 -5546.0412 118.08789 -5571.7422 118.08789 L -5664.5254 118.08789 z M -5664.5254 247.98438 C -5690.2264 247.98438 -5710.918 268.67595 -5710.918 294.37695 L -5710.918 322.21094 C -5710.918 347.91194 -5690.2264 368.60352 -5664.5254 368.60352 L -5200.6074 368.60352 C -5174.9064 368.60352 -5154.2168 347.91194 -5154.2168 322.21094 L -5154.2168 294.37695 C -5154.2168 268.67595 -5174.9064 247.98438 -5200.6074 247.98438 L -5664.5254 247.98438 z " />
  <path
     id="rect71"
     style="fill:#000000;fill-opacity:1;stroke-width:9.27837"
     d="M -4912.9805 -401.5 C -4938.6815 -401.5 -4959.3711 -380.80843 -4959.3711 -355.10742 L -4959.3711 -327.27344 C -4959.3711 -301.57243 -4938.6815 -280.88086 -4912.9805 -280.88086 L -4449.0625 -280.88086 C -4423.3615 -280.88086 -4402.6699 -301.57243 -4402.6699 -327.27344 L -4402.6699 -355.10742 C -4402.6699 -380.80843 -4423.3615 -401.5 -4449.0625 -401.5 L -4912.9805 -401.5 z M -4912.9805 -271.60352 C -4938.6815 -271.60352 -4959.3711 -250.91194 -4959.3711 -225.21094 L -4959.3711 -197.37695 C -4959.3711 -171.67595 -4938.6815 -150.98438 -4912.9805 -150.98438 L -4820.1973 -150.98438 C -4794.4963 -150.98438 -4773.8047 -171.67595 -4773.8047 -197.37695 L -4773.8047 -225.21094 C -4773.8047 -250.91194 -4794.4963 -271.60352 -4820.1973 -271.60352 L -4912.9805 -271.60352 z M -4912.9805 -141.70703 C -4938.6815 -141.70703 -4959.3711 -121.01546 -4959.3711 -95.314453 L -4959.3711 -67.478516 C -4959.3711 -41.777512 -4938.6815 -21.087891 -4912.9805 -21.087891 L -4653.1855 -21.087891 C -4627.4845 -21.087891 -4606.7949 -41.777512 -4606.7949 -67.478516 L -4606.7949 -95.314453 C -4606.7949 -121.01546 -4627.4845 -141.70703 -4653.1855 -141.70703 L -4912.9805 -141.70703 z M -4912.9805 -11.808594 C -4938.6815 -11.808594 -4959.3711 8.8810273 -4959.3711 34.582031 L -4959.3711 62.417969 C -4959.3711 88.118973 -4938.6815 108.80859 -4912.9805 108.80859 L -4820.1973 108.80859 C -4794.4963 108.80859 -4773.8047 88.118973 -4773.8047 62.417969 L -4773.8047 34.582031 C -4773.8047 8.8810273 -4794.4963 -11.808594 -4820.1973 -11.808594 L -4912.9805 -11.808594 z M -4912.9805 118.08789 C -4938.6815 118.08789 -4959.3711 138.77751 -4959.3711 164.47852 L -4959.3711 192.31445 C -4959.3711 218.01546 -4938.6815 238.70703 -4912.9805 238.70703 L -4820.1973 238.70703 C -4794.4963 238.70703 -4773.8047 218.01546 -4773.8047 192.31445 L -4773.8047 164.47852 C -4773.8047 138.77751 -4794.4963 118.08789 -4820.1973 118.08789 L -4912.9805 118.08789 z M -4912.9805 247.98438 C -4938.6815 247.98438 -4959.3711 268.67595 -4959.3711 294.37695 L -4959.3711 322.21094 C -4959.3711 347.91194 -4938.6815 368.60352 -4912.9805 368.60352 L -4820.1973 368.60352 C -4794.4963 368.60352 -4773.8047 347.91194 -4773.8047 322.21094 L -4773.8047 294.37695 C -4773.8047 268.67595 -4794.4963 247.98438 -4820.1973 247.98438 L -4912.9805 247.98438 z " />
  <path
     id="rect77"
     style="fill:#000000;fill-opacity:1;stroke-width:9.27837"
     d="M -4161.4336 -401.5 C -4187.1346 -401.5 -4207.8242 -380.80843 -4207.8242 -355.10742 L -4207.8242 -327.27344 C -4207.8242 -301.57243 -4187.1346 -280.88086 -4161.4336 -280.88086 L -3697.5156 -280.88086 C -3671.8146 -280.88086 -3651.123 -301.57243 -3651.123 -327.27344 L -3651.123 -355.10742 C -3651.123 -380.80843 -3671.8146 -401.5 -3697.5156 -401.5 L -4161.4336 -401.5 z M -4161.4336 -271.60352 C -4187.1346 -271.60352 -4207.8242 -250.91194 -4207.8242 -225.21094 L -4207.8242 -197.37695 C -4207.8242 -171.67595 -4187.1346 -150.98438 -4161.4336 -150.98438 L -4068.6504 -150.98438 C -4042.9494 -150.98438 -4022.2578 -171.67595 -4022.2578 -197.37695 L -4022.2578 -225.21094 C -4022.2578 -250.91194 -4042.9494 -271.60352 -4068.6504 -271.60352 L -4161.4336 -271.60352 z M -4161.4336 -141.70703 C -4187.1346 -141.70703 -4207.8242 -121.01546 -4207.8242 -95.314453 L -4207.8242 -67.478516 C -4207.8242 -41.777512 -4187.1346 -21.087891 -4161.4336 -21.087891 L -4068.6504 -21.087891 C -4042.9494 -21.087891 -4022.2578 -41.777512 -4022.2578 -67.478516 L -4022.2578 -95.314453 C -4022.2578 -121.01546 -4042.9494 -141.70703 -4068.6504 -141.70703 L -4161.4336 -141.70703 z M -4161.4336 -11.808594 C -4187.1346 -11.808594 -4207.8242 8.8810273 -4207.8242 34.582031 L -4207.8242 62.417969 C -4207.8242 88.118973 -4187.1346 108.80859 -4161.4336 108.80859 L -4068.6504 108.80859 C -4042.9494 108.80859 -4022.2578 88.118973 -4022.2578 62.417969 L -4022.2578 34.582031 C -4022.2578 8.8810273 -4042.9494 -11.808594 -4068.6504 -11.808594 L -4161.4336 -11.808594 z M -3883.082 -11.808594 C -3908.783 -11.808594 -3929.4746 8.8810273 -3929.4746 34.582031 L -3929.4746 62.417969 C -3929.4746 88.118973 -3908.783 108.80859 -3883.082 108.80859 L -3697.5156 108.80859 C -3671.8146 108.80859 -3651.123 88.118973 -3651.123 62.417969 L -3651.123 34.582031 C -3651.123 8.8810273 -3671.8146 -11.808594 -3697.5156 -11.808594 L -3883.082 -11.808594 z M -4161.4336 118.08789 C -4187.1346 118.08789 -4207.8242 138.77751 -4207.8242 164.47852 L -4207.8242 192.31445 C -4207.8242 218.01546 -4187.1346 238.70703 -4161.4336 238.70703 L -4068.6504 238.70703 C -4042.9494 238.70703 -4022.2578 218.01546 -4022.2578 192.31445 L -4022.2578 164.47852 C -4022.2578 138.77751 -4042.9494 118.08789 -4068.6504 118.08789 L -4161.4336 118.08789 z M -3790.2988 118.08789 C -3815.9998 118.08789 -3836.6914 138.77751 -3836.6914 164.47852 L -3836.6914 192.31445 C -3836.6914 218.01546 -3815.9998 238.70703 -3790.2988 238.70703 L -3697.5156 238.70703 C -3671.8146 238.70703 -3651.123 218.01546 -3651.123 192.31445 L -3651.123 164.47852 C -3651.123 138.77751 -3671.8146 118.08789 -3697.5156 118.08789 L -3790.2988 118.08789 z M -4161.4336 247.98438 C -4187.1346 247.98438 -4207.8242 268.67595 -4207.8242 294.37695 L -4207.8242 322.21094 C -4207.8242 347.91194 -4187.1346 368.60352 -4161.4336 368.60352 L -3697.5156 368.60352 C -3671.8146 368.60352 -3651.123 347.91194 -3651.123 322.21094 L -3651.123 294.37695 C -3651.123 268.67595 -3671.8146 247.98438 -3697.5156 247.98438 L -4161.4336 247.98438 z " />
  <path
     id="rect85"
     style="fill:#000000;fill-opacity:1;stroke-width:9.27837"
     d="M -3409.8867 -401.5 C -3435.5877 -401.5 -3456.2793 -380.80843 -3456.2793 -355.10742 L -3456.2793 -327.27344 C -3456.2793 -301.57243 -3435.5877 -280.88086 -3409.8867 -280.88086 L -3317.1035 -280.88086 C -3291.4025 -280.88086 -3270.7109 -301.57243 -3270.7109 -327.27344 L -3270.7109 -355.10742 C -3270.7109 -380.80843 -3291.4025 -401.5 -3317.1035 -401.5 L -3409.8867 -401.5 z M -3038.752 -401.5 C -3064.453 -401.5 -3085.1445 -380.80843 -3085.1445 -355.10742 L -3085.1445 -327.27344 C -3085.1445 -301.57243 -3064.453 -280.88086 -3038.752 -280.88086 L -2945.9688 -280.88086 C -2920.2677 -280.88086 -2899.5781 -301.57243 -2899.5781 -327.27344 L -2899.5781 -355.10742 C -2899.5781 -380.80843 -2920.2677 -401.5 -2945.9688 -401.5 L -3038.752 -401.5 z M -3409.8867 -271.60352 C -3435.5877 -271.60352 -3456.2793 -250.91194 -3456.2793 -225.21094 L -3456.2793 -197.37695 C -3456.2793 -171.67595 -3435.5877 -150.98438 -3409.8867 -150.98438 L -3317.1035 -150.98438 C -3291.4025 -150.98438 -3270.7109 -171.67595 -3270.7109 -197.37695 L -3270.7109 -225.21094 C -3270.7109 -250.91194 -3291.4025 -271.60352 -3317.1035 -271.60352 L -3409.8867 -271.60352 z M -3038.752 -271.60352 C -3064.453 -271.60352 -3085.1445 -250.91194 -3085.1445 -225.21094 L -3085.1445 -197.37695 C -3085.1445 -171.67595 -3064.453 -150.98438 -3038.752 -150.98438 L -2945.9688 -150.98438 C -2920.2677 -150.98438 -2899.5781 -171.67595 -2899.5781 -197.37695 L -2899.5781 -225.21094 C -2899.5781 -250.91194 -2920.2677 -271.60352 -2945.9688 -271.60352 L -3038.752 -271.60352 z M -3409.8867 -141.70703 C -3435.5877 -141.70703 -3456.2793 -121.01546 -3456.2793 -95.314453 L -3456.2793 -67.478516 C -3456.2793 -41.777512 -3435.5877 -21.087891 -3409.8867 -21.087891 L -3317.1035 -21.087891 C -3291.4025 -21.087891 -3270.7109 -41.777512 -3270.7109 -67.478516 L -3270.7109 -95.314453 C -3270.7109 -121.01546 -3291.4025 -141.70703 -3317.1035 -141.70703 L -3409.8867 -141.70703 z M -3038.752 -141.70703 C -3064.453 -141.70703 -3085.1445 -121.01546 -3085.1445 -95.314453 L -3085.1445 -67.478516 C -3085.1445 -41.777512 -3064.453 -21.087891 -3038.752 -21.087891 L -2945.9688 -21.087891 C -2920.2677 -21.087891 -2899.5781 -41.777512 -2899.5781 -67.478516 L -2899.5781 -95.314453 C -2899.5781 -121.01546 -2920.2677 -141.70703 -2945.9688 -141.70703 L -3038.752 -141.70703 z M -3409.8867 -11.808594 C -3435.5877 -11.808594 -3456.2793 8.8810273 -3456.2793 34.582031 L -3456.2793 62.417969 C -3456.2793 88.118973 -3435.5877 108.80859 -3409.8867 108.80859 L -2945.9688 108.80859 C -2920.2677 108.80859 -2899.5781 88.118973 -2899.5781 62.417969 L -2899.5781 34.582031 C -2899.5781 8.8810273 -2920.2677 -11.808594 -2945.9688 -11.808594 L -3409.8867 -11.808594 z M -3409.8867 118.08789 C -3435.5877 118.08789 -3456.2793 138.77751 -3456.2793 164.47852 L -3456.2793 192.31445 C -3456.2793 218.01546 -3435.5877 238.70703 -3409.8867 238.70703 L -3317.1035 238.70703 C -3291.4025 238.70703 -3270.7109 218.01546 -3270.7109 192.31445 L -3270.7109 164.47852 C -3270.7109 138.77751 -3291.4025 118.08789 -3317.1035 118.08789 L -3409.8867 118.08789 z M -3038.752 118.08789 C -3064.453 118.08789 -3085.1445 138.77751 -3085.1445 164.47852 L -3085.1445 192.31445 C -3085.1445 218.01546 -3064.453 238.70703 -3038.752 238.70703 L -2945.9688 238.70703 C -2920.2677 238.70703 -2899.5781 218.01546 -2899.5781 192.31445 L -2899.5781 164.47852 C -2899.5781 138.77751 -2920.2677 118.08789 -2945.9688 118.08789 L -3038.752 118.08789 z M -3409.8867 247.98438 C -3435.5877 247.98438 -3456.2793 268.67595 -3456.2793 294.37695 L -3456.2793 322.21094 C -3456.2793 347.91194 -3435.5877 368.60352 -3409.8867 368.60352 L -3317.1035 368.60352 C -3291.4025 368.60352 -3270.7109 347.91194 -3270.7109 322.21094 L -3270.7109 294.37695 C -3270.7109 268.67595 -3291.4025 247.98438 -3317.1035 247.98438 L -3409.8867 247.98438 z M -3038.752 247.98438 C -3064.453 247.98438 -3085.1445 268.67595 -3085.1445 294.37695 L -3085.1445 322.21094 C -3085.1445 347.91194 -3064.453 368.60352 -3038.752 368.60352 L -2945.9688 368.60352 C -2920.2677 368.60352 -2899.5781 347.91194 -2899.5781 322.21094 L -2899.5781 294.37695 C -2899.5781 268.67595 -2920.2677 247.98438 -2945.9688 247.98438 L -3038.752 247.98438 z " />
  <path
     id="rect96"
     style="fill:#000000;fill-opacity:1;stroke-width:9.27837"
     d="M -2658.3398 -401.5 C -2684.0408 -401.5 -2704.7324 -380.80843 -2704.7324 -355.10742 L -2704.7324 -327.27344 C -2704.7324 -301.57243 -2684.0408 -280.88086 -2658.3398 -280.88086 L -2194.4238 -280.88086 C -2168.7228 -280.88086 -2148.0312 -301.57243 -2148.0312 -327.27344 L -2148.0312 -355.10742 C -2148.0312 -380.80843 -2168.7228 -401.5 -2194.4238 -401.5 L -2658.3398 -401.5 z M -2472.7734 -271.60352 C -2498.4744 -271.60352 -2519.1641 -250.91194 -2519.1641 -225.21094 L -2519.1641 -197.37695 C -2519.1641 -171.67595 -2498.4744 -150.98438 -2472.7734 -150.98438 L -2379.9902 -150.98438 C -2354.2892 -150.98438 -2333.5977 -171.67595 -2333.5977 -197.37695 L -2333.5977 -225.21094 C -2333.5977 -250.91194 -2354.2892 -271.60352 -2379.9902 -271.60352 L -2472.7734 -271.60352 z M -2472.7734 -141.70703 C -2498.4744 -141.70703 -2519.1641 -121.01546 -2519.1641 -95.314453 L -2519.1641 -67.478516 C -2519.1641 -41.777512 -2498.4744 -21.087891 -2472.7734 -21.087891 L -2379.9902 -21.087891 C -2354.2892 -21.087891 -2333.5977 -41.777512 -2333.5977 -67.478516 L -2333.5977 -95.314453 C -2333.5977 -121.01546 -2354.2892 -141.70703 -2379.9902 -141.70703 L -2472.7734 -141.70703 z M -2472.7734 -11.808594 C -2498.4744 -11.808594 -2519.1641 8.8810273 -2519.1641 34.582031 L -2519.1641 62.417969 C -2519.1641 88.118973 -2498.4744 108.80859 -2472.7734 108.80859 L -2379.9902 108.80859 C -2354.2892 108.80859 -2333.5977 88.118973 -2333.5977 62.417969 L -2333.5977 34.582031 C -2333.5977 8.8810273 -2354.2892 -11.808594 -2379.9902 -11.808594 L -2472.7734 -11.808594 z M -2472.7734 118.08789 C -2498.4744 118.08789 -2519.1641 138.77751 -2519.1641 164.47852 L -2519.1641 192.31445 C -2519.1641 218.01546 -2498.4744 238.70703 -2472.7734 238.70703 L -2379.9902 238.70703 C -2354.2892 238.70703 -2333.5977 218.01546 -2333.5977 192.31445 L -2333.5977 164.47852 C -2333.5977 138.77751 -2354.2892 118.08789 -2379.9902 118.08789 L -2472.7734 118.08789 z M -2658.3398 247.98438 C -2684.0408 247.98438 -2704.7324 268.67595 -2704.7324 294.37695 L -2704.7324 322.21094 C -2704.7324 347.91194 -2684.0408 368.60352 -2658.3398 368.60352 L -2194.4238 368.60352 C -2168.7228 368.60352 -2148.0312 347.91194 -2148.0312 322.21094 L -2148.0312 294.37695 C -2148.0312 268.67595 -2168.7228 247.98438 -2194.4238 247.98438 L -2658.3398 247.98438 z " />
  <path
     id="rect102"
     style="fill:#000000;fill-opacity:1;stroke-width:9.27837"
     d="M 5673.6191 -401.5 C 5647.9181 -401.5 5627.2266 -380.80843 5627.2266 -355.10742 L 5627.2266 -327.27344 C 5627.2266 -301.57243 5647.9181 -280.88086 5673.6191 -280.88086 L 6137.5352 -280.88086 C 6163.2362 -280.88086 6183.9277 -301.57243 6183.9277 -327.27344 L 6183.9277 -355.10742 C 6183.9277 -380.80843 6163.2362 -401.5 6137.5352 -401.5 L 5673.6191 -401.5 z M 5859.1855 -271.60352 C 5833.4845 -271.60352 5812.793 -250.91194 5812.793 -225.21094 L 5812.793 -197.37695 C 5812.793 -171.67595 5833.4845 -150.98438 5859.1855 -150.98438 L 5951.9688 -150.98438 C 5977.6698 -150.98438 5998.3613 -171.67595 5998.3613 -197.37695 L 5998.3613 -225.21094 C 5998.3613 -250.91194 5977.6698 -271.60352 5951.9688 -271.60352 L 5859.1855 -271.60352 z M 5859.1855 -141.70703 C 5833.4845 -141.70703 5812.793 -121.01546 5812.793 -95.314453 L 5812.793 -67.478516 C 5812.793 -41.777512 5833.4845 -21.087891 5859.1855 -21.087891 L 5951.9688 -21.087891 C 5977.6698 -21.087891 5998.3613 -41.777512 5998.3613 -67.478516 L 5998.3613 -95.314453 C 5998.3613 -121.01546 5977.6698 -141.70703 5951.9688 -141.70703 L 5859.1855 -141.70703 z M 5859.1855 -11.808594 C 5833.4845 -11.808594 5812.793 8.8810273 5812.793 34.582031 L 5812.793 62.417969 C 5812.793 88.118973 5833.4845 108.80859 5859.1855 108.80859 L 5951.9688 108.80859 C 5977.6698 108.80859 5998.3613 88.118973 5998.3613 62.417969 L 5998.3613 34.582031 C 5998.3613 8.8810273 5977.6698 -11.808594 5951.9688 -11.808594 L 5859.1855 -11.808594 z M 5859.1855 118.08789 C 5833.4845 118.08789 5812.793 138.77751 5812.793 164.47852 L 5812.793 192.31445 C 5812.793 218.01546 5833.4845 238.70703 5859.1855 238.70703 L 5951.9688 238.70703 C 5977.6698 238.70703 5998.3613 218.01546 5998.3613 192.31445 L 5998.3613 164.47852 C 5998.3613 138.77751 5977.6698 118.08789 5951.9688 118.08789 L 5859.1855 118.08789 z M 5859.1855 247.98438 C 5833.4845 247.98438 5812.793 268.67595 5812.793 294.37695 L 5812.793 322.21094 C 5812.793 347.91194 5833.4845 368.60352 5859.1855 368.60352 L 5951.9688 368.60352 C 5977.6698 368.60352 5998.3613 347.91194 5998.3613 322.21094 L 5998.3613 294.37695 C 5998.3613 268.67595 5977.6698 247.98438 5951.9688 247.98438 L 5859.1855 247.98438 z " />
  <path
     id="rect108"
     style="fill:#000000;fill-opacity:1;stroke-width:9.27837"
     d="M -1535.6602 -401.5 C -1561.3612 -401.5 -1582.0508 -380.80843 -1582.0508 -355.10742 L -1582.0508 -327.27344 C -1582.0508 -301.57243 -1561.3612 -280.88086 -1535.6602 -280.88086 L -1442.877 -280.88086 C -1417.1759 -280.88086 -1396.4844 -301.57243 -1396.4844 -327.27344 L -1396.4844 -355.10742 C -1396.4844 -380.80843 -1417.1759 -401.5 -1442.877 -401.5 L -1535.6602 -401.5 z M -1535.6602 -271.60352 C -1561.3612 -271.60352 -1582.0508 -250.91194 -1582.0508 -225.21094 L -1582.0508 -197.37695 C -1582.0508 -171.67595 -1561.3612 -150.98438 -1535.6602 -150.98438 L -1442.877 -150.98438 C -1417.1759 -150.98438 -1396.4844 -171.67595 -1396.4844 -197.37695 L -1396.4844 -225.21094 C -1396.4844 -250.91194 -1417.1759 -271.60352 -1442.877 -271.60352 L -1535.6602 -271.60352 z M -1535.6602 -141.70703 C -1561.3612 -141.70703 -1582.0508 -121.01546 -1582.0508 -95.314453 L -1582.0508 -67.478516 C -1582.0508 -41.777512 -1561.3612 -21.087891 -1535.6602 -21.087891 L -1442.877 -21.087891 C -1417.1759 -21.087891 -1396.4844 -41.777512 -1396.4844 -67.478516 L -1396.4844 -95.314453 C -1396.4844 -121.01546 -1417.1759 -141.70703 -1442.877 -141.70703 L -1535.6602 -141.70703 z M -1535.6602 -11.808594 C -1561.3612 -11.808594 -1582.0508 8.8810273 -1582.0508 34.582031 L -1582.0508 62.417969 C -1582.0508 88.118973 -1561.3612 108.80859 -1535.6602 108.80859 L -1442.877 108.80859 C -1417.1759 108.80859 -1396.4844 88.118973 -1396.4844 62.417969 L -1396.4844 34.582031 C -1396.4844 8.8810273 -1417.1759 -11.808594 -1442.877 -11.808594 L -1535.6602 -11.808594 z M -1906.793 118.08789 C -1932.494 118.08789 -1953.1855 138.77751 -1953.1855 164.47852 L -1953.1855 192.31445 C -1953.1855 218.01546 -1932.494 238.70703 -1906.793 238.70703 L -1814.0098 238.70703 C -1788.3088 238.70703 -1767.6191 218.01546 -1767.6191 192.31445 L -1767.6191 164.47852 C -1767.6191 138.77751 -1788.3088 118.08789 -1814.0098 118.08789 L -1906.793 118.08789 z M -1535.6602 118.08789 C -1561.3612 118.08789 -1582.0508 138.77751 -1582.0508 164.47852 L -1582.0508 192.31445 C -1582.0508 218.01546 -1561.3612 238.70703 -1535.6602 238.70703 L -1442.877 238.70703 C -1417.1759 238.70703 -1396.4844 218.01546 -1396.4844 192.31445 L -1396.4844 164.47852 C -1396.4844 138.77751 -1417.1759 118.08789 -1442.877 118.08789 L -1535.6602 118.08789 z M -1906.793 247.98438 C -1932.494 247.98438 -1953.1855 268.67595 -1953.1855 294.37695 L -1953.1855 322.21094 C -1953.1855 347.91194 -1932.494 368.60352 -1906.793 368.60352 L -1442.877 368.60352 C -1417.1759 368.60352 -1396.4844 347.91194 -1396.4844 322.21094 L -1396.4844 294.37695 C -1396.4844 268.67595 -1417.1759 247.98438 -1442.877 247.98438 L -1906.793 247.98438 z " />
  <path
     id="rect115"
     style="fill:#000000;fill-opacity:1;stroke-width:9.27837"
     d="M -1155.248 -401.5 C -1180.9491 -401.5 -1201.6387 -380.80843 -1201.6387 -355.10742 L -1201.6387 -327.27344 C -1201.6387 -301.57243 -1180.9491 -280.88086 -1155.248 -280.88086 L -1062.4648 -280.88086 C -1036.7638 -280.88086 -1016.0723 -301.57243 -1016.0723 -327.27344 L -1016.0723 -355.10742 C -1016.0723 -380.80843 -1036.7638 -401.5 -1062.4648 -401.5 L -1155.248 -401.5 z M -1155.248 -271.60352 C -1180.9491 -271.60352 -1201.6387 -250.91194 -1201.6387 -225.21094 L -1201.6387 -197.37695 C -1201.6387 -171.67595 -1180.9491 -150.98438 -1155.248 -150.98438 L -1062.4648 -150.98438 C -1036.7638 -150.98438 -1016.0723 -171.67595 -1016.0723 -197.37695 L -1016.0723 -225.21094 C -1016.0723 -250.91194 -1036.7638 -271.60352 -1062.4648 -271.60352 L -1155.248 -271.60352 z M -784.11328 -271.60352 C -809.81429 -271.60352 -830.50586 -250.91194 -830.50586 -225.21094 L -830.50586 -197.37695 C -830.50586 -171.67595 -809.81429 -150.98438 -784.11328 -150.98438 L -691.33008 -150.98438 C -665.62907 -150.98438 -644.9375 -171.67595 -644.9375 -197.37695 L -644.9375 -225.21094 C -644.9375 -250.91194 -665.62907 -271.60352 -691.33008 -271.60352 L -784.11328 -271.60352 z M -1155.248 -141.70703 C -1180.9491 -141.70703 -1201.6387 -121.01546 -1201.6387 -95.314453 L -1201.6387 -67.478516 C -1201.6387 -41.777512 -1180.9491 -21.087891 -1155.248 -21.087891 L -1062.4648 -21.087891 C -1036.7638 -21.087891 -1016.0723 -41.777512 -1016.0723 -67.478516 L -1016.0723 -95.314453 C -1016.0723 -121.01546 -1036.7638 -141.70703 -1062.4648 -141.70703 L -1155.248 -141.70703 z M -876.89648 -141.70703 C -902.59749 -141.70703 -923.28906 -121.01546 -923.28906 -95.314453 L -923.28906 -67.478516 C -923.28906 -41.777512 -902.59749 -21.087891 -876.89648 -21.087891 L -784.11328 -21.087891 C -758.41228 -21.087891 -737.72266 -41.777512 -737.72266 -67.478516 L -737.72266 -95.314453 C -737.72266 -121.01546 -758.41228 -141.70703 -784.11328 -141.70703 L -876.89648 -141.70703 z M -1155.248 -11.808594 C -1180.9491 -11.808594 -1201.6387 8.8810273 -1201.6387 34.582031 L -1201.6387 62.417969 C -1201.6387 88.118973 -1180.9491 108.80859 -1155.248 108.80859 L -876.89648 108.80859 C -851.19548 108.80859 -830.50586 88.118973 -830.50586 62.417969 L -830.50586 34.582031 C -830.50586 8.8810273 -851.19548 -11.808594 -876.89648 -11.808594 L -1155.248 -11.808594 z M -1155.248 118.08789 C -1180.9491 118.08789 -1201.6387 138.77751 -1201.6387 164.47852 L -1201.6387 192.31445 C -1201.6387 218.01546 -1180.9491 238.70703 -1155.248 238.70703 L -1062.4648 238.70703 C -1036.7638 238.70703 -1016.0723 218.01546 -1016.0723 192.31445 L -1016.0723 164.47852 C -1016.0723 138.77751 -1036.7638 118.08789 -1062.4648 118.08789 L -1155.248 118.08789 z M -876.89648 118.08789 C -902.59749 118.08789 -923.28906 138.77751 -923.28906 164.47852 L -923.28906 192.31445 C -923.28906 218.01546 -902.59749 238.70703 -876.89648 238.70703 L -784.11328 238.70703 C -758.41228 238.70703 -737.72266 218.01546 -737.72266 192.31445 L -737.72266 164.47852 C -737.72266 138.77751 -758.41228 118.08789 -784.11328 118.08789 L -876.89648 118.08789 z M -1155.248 247.98438 C -1180.9491 247.98438 -1201.6387 268.67595 -1201.6387 294.37695 L -1201.6387 322.21094 C -1201.6387 347.91194 -1180.9491 368.60352 -1155.248 368.60352 L -1062.4648 368.60352 C -1036.7638 368.60352 -1016.0723 347.91194 -1016.0723 322.21094 L -1016.0723 294.37695 C -1016.0723 268.67595 -1036.7638 247.98438 -1062.4648 247.98438 L -1155.248 247.98438 z M -784.11328 247.98438 C -809.81429 247.98438 -830.50586 268.67595 -830.50586 294.37695 L -830.50586 322.21094 C -830.50586 347.91194 -809.81429 368.60352 -784.11328 368.60352 L -691.33008 368.60352 C -665.62907 368.60352 -644.9375 347.91194 -644.9375 322.21094 L -644.9375 294.37695 C -644.9375 268.67595 -665.62907 247.98438 -691.33008 247.98438 L -784.11328 247.98438 z " />
  <path
     id="rect126"
     style="fill:#000000;fill-opacity:1;stroke-width:9.27837"
     d="M 347.8457 -401.5 C 322.1447 -401.5 301.45312 -380.80843 301.45312 -355.10742 L 301.45312 -327.27344 C 301.45313 -301.57243 322.1447 -280.88086 347.8457 -280.88086 L 440.62891 -280.88086 C 466.32991 -280.88086 487.02148 -301.57243 487.02148 -327.27344 L 487.02148 -355.10742 C 487.02148 -380.80843 466.32991 -401.5 440.62891 -401.5 L 347.8457 -401.5 z M 783.92773 -401.5 C 758.22673 -401.5 737.53516 -380.80843 737.53516 -355.10742 L 737.53516 -327.27344 C 737.53516 -301.57243 758.22673 -280.88086 783.92773 -280.88086 L 876.71094 -280.88086 C 902.41194 -280.88086 923.10352 -301.57243 923.10352 -327.27344 L 923.10352 -355.10742 C 923.10352 -380.80843 902.41194 -401.5 876.71094 -401.5 L 783.92773 -401.5 z M 347.8457 -271.60352 C 322.1447 -271.60352 301.45312 -250.91194 301.45312 -225.21094 L 301.45312 -197.37695 C 301.45313 -171.67595 322.1447 -150.98438 347.8457 -150.98438 L 533.41211 -150.98438 C 559.11311 -150.98438 579.80469 -171.67595 579.80469 -197.37695 L 579.80469 -225.21094 C 579.80469 -250.91194 559.11311 -271.60352 533.41211 -271.60352 L 347.8457 -271.60352 z M 681.86523 -271.60352 C 656.16423 -271.60352 635.47461 -250.91194 635.47461 -225.21094 L 635.47461 -197.37695 C 635.47461 -171.67595 656.16423 -150.98438 681.86523 -150.98438 L 876.71094 -150.98438 C 902.41194 -150.98438 923.10352 -171.67595 923.10352 -197.37695 L 923.10352 -225.21094 C 923.10352 -250.91194 902.41194 -271.60352 876.71094 -271.60352 L 681.86523 -271.60352 z M 561.24805 -150.98438 C 535.54704 -150.98438 514.85547 -130.29475 514.85547 -104.59375 L 514.85547 -76.757812 C 514.85547 -51.056809 535.54704 -30.365234 561.24805 -30.365234 L 654.03125 -30.365234 C 679.73225 -30.365234 700.42188 -51.056809 700.42188 -76.757812 L 700.42188 -104.59375 C 700.42188 -130.29475 679.73225 -150.98438 654.03125 -150.98438 L 561.24805 -150.98438 z M 347.8457 -141.70703 C 322.1447 -141.70703 301.45312 -121.01546 301.45312 -95.314453 L 301.45312 -67.478516 C 301.45313 -41.777512 322.1447 -21.087891 347.8457 -21.087891 L 440.62891 -21.087891 C 466.32991 -21.087891 487.02148 -41.777512 487.02148 -67.478516 L 487.02148 -95.314453 C 487.02148 -121.01546 466.32991 -141.70703 440.62891 -141.70703 L 347.8457 -141.70703 z M 783.92773 -141.70703 C 758.22673 -141.70703 737.53516 -121.01546 737.53516 -95.314453 L 737.53516 -67.478516 C 737.53516 -41.777512 758.22673 -21.087891 783.92773 -21.087891 L 876.71094 -21.087891 C 902.41194 -21.087891 923.10352 -41.777512 923.10352 -67.478516 L 923.10352 -95.314453 C 923.10352 -121.01546 902.41194 -141.70703 876.71094 -141.70703 L 783.92773 -141.70703 z M 347.8457 -11.808594 C 322.1447 -11.808594 301.45312 8.8810273 301.45312 34.582031 L 301.45312 62.417969 C 301.45313 88.118973 322.1447 108.80859 347.8457 108.80859 L 440.62891 108.80859 C 466.32991 108.80859 487.02148 88.118973 487.02148 62.417969 L 487.02148 34.582031 C 487.02148 8.8810273 466.32991 -11.808594 440.62891 -11.808594 L 347.8457 -11.808594 z M 783.92773 -11.808594 C 758.22673 -11.808594 737.53516 8.8810273 737.53516 34.582031 L 737.53516 62.417969 C 737.53516 88.118973 758.22673 108.80859 783.92773 108.80859 L 876.71094 108.80859 C 902.41194 108.80859 923.10352 88.118973 923.10352 62.417969 L 923.10352 34.582031 C 923.10352 8.8810273 902.41194 -11.808594 876.71094 -11.808594 L 783.92773 -11.808594 z M 347.8457 118.08789 C 322.1447 118.08789 301.45312 138.77751 301.45312 164.47852 L 301.45312 192.31445 C 301.45313 218.01546 322.1447 238.70703 347.8457 238.70703 L 440.62891 238.70703 C 466.32991 238.70703 487.02148 218.01546 487.02148 192.31445 L 487.02148 164.47852 C 487.02148 138.77751 466.32991 118.08789 440.62891 118.08789 L 347.8457 118.08789 z M 783.92773 118.08789 C 758.22673 118.08789 737.53516 138.77751 737.53516 164.47852 L 737.53516 192.31445 C 737.53516 218.01546 758.22673 238.70703 783.92773 238.70703 L 876.71094 238.70703 C 902.41194 238.70703 923.10352 218.01546 923.10352 192.31445 L 923.10352 164.47852 C 923.10352 138.77751 902.41194 118.08789 876.71094 118.08789 L 783.92773 118.08789 z M 347.8457 247.98438 C 322.1447 247.98438 301.45312 268.67595 301.45312 294.37695 L 301.45312 322.21094 C 301.45313 347.91194 322.1447 368.60352 347.8457 368.60352 L 440.62891 368.60352 C 466.32991 368.60352 487.02148 347.91194 487.02148 322.21094 L 487.02148 294.37695 C 487.02148 268.67595 466.32991 247.98438 440.62891 247.98438 L 347.8457 247.98438 z M 783.92773 247.98438 C 758.22673 247.98438 737.53516 268.67595 737.53516 294.37695 L 737.53516 322.21094 C 737.53516 347.91194 758.22673 368.60352 783.92773 368.60352 L 876.71094 368.60352 C 902.41194 368.60352 923.10352 347.91194 923.10352 322.21094 L 923.10352 294.37695 C 923.10352 268.67595 902.41194 247.98438 876.71094 247.98438 L 783.92773 247.98438 z " />
  <path
     id="rect140"
     style="fill:#000000;fill-opacity:1;stroke-width:9.27837"
     d="M 7928.2578 401.5 C 7902.5568 401.5 7881.8672 380.80843 7881.8672 355.10742 L 7881.8672 327.27344 C 7881.8672 301.57243 7902.5568 280.88086 7928.2578 280.88086 L 8021.041 280.88086 C 8046.742 280.88086 8067.4336 301.57243 8067.4336 327.27344 L 8067.4336 355.10742 C 8067.4336 380.80843 8046.742 401.5 8021.041 401.5 L 7928.2578 401.5 z M 8364.3398 401.5 C 8338.6388 401.5 8317.9492 380.80843 8317.9492 355.10742 L 8317.9492 327.27344 C 8317.9492 301.57243 8338.6388 280.88086 8364.3398 280.88086 L 8457.123 280.88086 C 8482.8241 280.88086 8503.5156 301.57243 8503.5156 327.27344 L 8503.5156 355.10742 C 8503.5156 380.80843 8482.8241 401.5 8457.123 401.5 L 8364.3398 401.5 z M 7928.2578 271.60352 C 7902.5568 271.60352 7881.8672 250.91194 7881.8672 225.21094 L 7881.8672 197.37695 C 7881.8672 171.67595 7902.5568 150.98438 7928.2578 150.98438 L 8021.041 150.98438 C 8046.742 150.98438 8067.4336 171.67595 8067.4336 197.37695 L 8067.4336 225.21094 C 8067.4336 250.91194 8046.742 271.60352 8021.041 271.60352 L 7928.2578 271.60352 z M 8364.3398 271.60352 C 8338.6388 271.60352 8317.9492 250.91194 8317.9492 225.21094 L 8317.9492 197.37695 C 8317.9492 171.67595 8338.6388 150.98438 8364.3398 150.98438 L 8457.123 150.98438 C 8482.8241 150.98438 8503.5156 171.67595 8503.5156 197.37695 L 8503.5156 225.21094 C 8503.5156 250.91194 8482.8241 271.60352 8457.123 271.60352 L 8364.3398 271.60352 z M 7928.2578 141.70703 C 7902.5568 141.70703 7881.8672 121.01546 7881.8672 95.314453 L 7881.8672 67.478516 C 7881.8672 41.777512 7902.5568 21.087891 7928.2578 21.087891 L 8021.041 21.087891 C 8046.742 21.087891 8067.4336 41.777512 8067.4336 67.478516 L 8067.4336 95.314453 C 8067.4336 121.01546 8046.742 141.70703 8021.041 141.70703 L 7928.2578 141.70703 z M 8364.3398 141.70703 C 8338.6388 141.70703 8317.9492 121.01546 8317.9492 95.314453 L 8317.9492 67.478516 C 8317.9492 41.777512 8338.6388 21.087891 8364.3398 21.087891 L 8457.123 21.087891 C 8482.8241 21.087891 8503.5156 41.777512 8503.5156 67.478516 L 8503.5156 95.314453 C 8503.5156 121.01546 8482.8241 141.70703 8457.123 141.70703 L 8364.3398 141.70703 z M 7928.2578 11.808594 C 7902.5568 11.808594 7881.8672 -8.8810273 7881.8672 -34.582031 L 7881.8672 -62.417969 C 7881.8672 -88.118973 7902.5568 -108.80859 7928.2578 -108.80859 L 8021.041 -108.80859 C 8046.742 -108.80859 8067.4336 -88.118973 8067.4336 -62.417969 L 8067.4336 -34.582031 C 8067.4336 -8.8810273 8046.742 11.808594 8021.041 11.808594 L 7928.2578 11.808594 z M 8364.3398 11.808594 C 8338.6388 11.808594 8317.9492 -8.8810273 8317.9492 -34.582031 L 8317.9492 -62.417969 C 8317.9492 -88.118973 8338.6388 -108.80859 8364.3398 -108.80859 L 8457.123 -108.80859 C 8482.8241 -108.80859 8503.5156 -88.118973 8503.5156 -62.417969 L 8503.5156 -34.582031 C 8503.5156 -8.8810273 8482.8241 11.808594 8457.123 11.808594 L 8364.3398 11.808594 z M 8141.6602 2.53125 C 8115.9592 2.53125 8095.2676 -18.160324 8095.2676 -43.861328 L 8095.2676 -71.695312 C 8095.2676 -97.396316 8115.9592 -118.08789 8141.6602 -118.08789 L 8234.4434 -118.08789 C 8260.1444 -118.08789 8280.8359 -97.396316 8280.8359 -71.695312 L 8280.8359 -43.861328 C 8280.8359 -18.160324 8260.1444 2.53125 8234.4434 2.53125 L 8141.6602 2.53125 z M 7928.2578 -118.08789 C 7902.5568 -118.08789 7881.8672 -138.77751 7881.8672 -164.47852 L 7881.8672 -192.31445 C 7881.8672 -218.01546 7902.5568 -238.70703 7928.2578 -238.70703 L 8113.8242 -238.70703 C 8139.5252 -238.70703 8160.2168 -218.01546 8160.2168 -192.31445 L 8160.2168 -164.47852 C 8160.2168 -138.77751 8139.5252 -118.08789 8113.8242 -118.08789 L 7928.2578 -118.08789 z M 8262.2793 -118.08789 C 8236.5783 -118.08789 8215.8867 -138.77751 8215.8867 -164.47852 L 8215.8867 -192.31445 C 8215.8867 -218.01546 8236.5783 -238.70703 8262.2793 -238.70703 L 8457.123 -238.70703 C 8482.8241 -238.70703 8503.5156 -218.01546 8503.5156 -192.31445 L 8503.5156 -164.47852 C 8503.5156 -138.77751 8482.8241 -118.08789 8457.123 -118.08789 L 8262.2793 -118.08789 z M 7928.2578 -247.98438 C 7902.5568 -247.98438 7881.8672 -268.67595 7881.8672 -294.37695 L 7881.8672 -322.21094 C 7881.8672 -347.91194 7902.5568 -368.60352 7928.2578 -368.60352 L 8021.041 -368.60352 C 8046.742 -368.60352 8067.4336 -347.91194 8067.4336 -322.21094 L 8067.4336 -294.37695 C 8067.4336 -268.67595 8046.742 -247.98438 8021.041 -247.98438 L 7928.2578 -247.98438 z M 8364.3398 -247.98438 C 8338.6388 -247.98438 8317.9492 -268.67595 8317.9492 -294.37695 L 8317.9492 -322.21094 C 8317.9492 -347.91194 8338.6388 -368.60352 8364.3398 -368.60352 L 8457.123 -368.60352 C 8482.8241 -368.60352 8503.5156 -347.91194 8503.5156 -322.21094 L 8503.5156 -294.37695 C 8503.5156 -268.67595 8482.8241 -247.98438 8457.123 -247.98438 L 8364.3398 -247.98438 z "
     transform="scale(1,-1)" />
  <path
     id="rect154"
     style="fill:#000000;fill-opacity:1;stroke-width:9.27837"
     d="M 1164.3398 -401.5 C 1138.6388 -401.5 1117.9492 -380.80843 1117.9492 -355.10742 L 1117.9492 -327.27344 C 1117.9492 -301.57243 1138.6388 -280.88086 1164.3398 -280.88086 L 1257.123 -280.88086 C 1282.8241 -280.88086 1303.5156 -301.57243 1303.5156 -327.27344 L 1303.5156 -355.10742 C 1303.5156 -380.80843 1282.8241 -401.5 1257.123 -401.5 L 1164.3398 -401.5 z M 1535.4746 -401.5 C 1509.7736 -401.5 1489.082 -380.80843 1489.082 -355.10742 L 1489.082 -327.27344 C 1489.082 -301.57243 1509.7736 -280.88086 1535.4746 -280.88086 L 1628.2578 -280.88086 C 1653.9588 -280.88086 1674.6504 -301.57243 1674.6504 -327.27344 L 1674.6504 -355.10742 C 1674.6504 -380.80843 1653.9588 -401.5 1628.2578 -401.5 L 1535.4746 -401.5 z M 1164.3398 -271.60352 C 1138.6388 -271.60352 1117.9492 -250.91194 1117.9492 -225.21094 L 1117.9492 -197.37695 C 1117.9492 -171.67595 1138.6388 -150.98438 1164.3398 -150.98438 L 1331.3496 -150.98438 C 1357.0506 -150.98438 1377.7422 -171.67595 1377.7422 -197.37695 L 1377.7422 -225.21094 C 1377.7422 -250.91194 1357.0506 -271.60352 1331.3496 -271.60352 L 1164.3398 -271.60352 z M 1535.4746 -271.60352 C 1509.7736 -271.60352 1489.082 -250.91194 1489.082 -225.21094 L 1489.082 -197.37695 C 1489.082 -171.67595 1509.7736 -150.98438 1535.4746 -150.98438 L 1628.2578 -150.98438 C 1653.9588 -150.98438 1674.6504 -171.67595 1674.6504 -197.37695 L 1674.6504 -225.21094 C 1674.6504 -250.91194 1653.9588 -271.60352 1628.2578 -271.60352 L 1535.4746 -271.60352 z M 1164.3398 -141.70703 C 1138.6388 -141.70703 1117.9492 -121.01546 1117.9492 -95.314453 L 1117.9492 -67.478516 C 1117.9492 -41.777512 1138.6388 -21.087891 1164.3398 -21.087891 L 1257.123 -21.087891 L 1387.0215 -21.087891 C 1412.7225 -21.087891 1433.4121 -41.777512 1433.4121 -67.478516 L 1433.4121 -95.314453 C 1433.4121 -121.01546 1412.7225 -141.70703 1387.0215 -141.70703 L 1257.123 -141.70703 L 1164.3398 -141.70703 z M 1535.4746 -141.70703 C 1509.7736 -141.70703 1489.082 -121.01546 1489.082 -95.314453 L 1489.082 -67.478516 C 1489.082 -41.777512 1509.7736 -21.087891 1535.4746 -21.087891 L 1628.2578 -21.087891 C 1653.9588 -21.087891 1674.6504 -41.777512 1674.6504 -67.478516 L 1674.6504 -95.314453 C 1674.6504 -121.01546 1653.9588 -141.70703 1628.2578 -141.70703 L 1535.4746 -141.70703 z M 1164.3398 -11.808594 C 1138.6388 -11.808594 1117.9492 8.8810273 1117.9492 34.582031 L 1117.9492 62.417969 C 1117.9492 88.118973 1138.6388 108.80859 1164.3398 108.80859 L 1257.123 108.80859 C 1282.8241 108.80859 1303.5156 88.118973 1303.5156 62.417969 L 1303.5156 34.582031 C 1303.5156 8.8810273 1282.8241 -11.808594 1257.123 -11.808594 L 1164.3398 -11.808594 z M 1405.5781 -11.808594 C 1379.8771 -11.808594 1359.1855 8.8810273 1359.1855 34.582031 L 1359.1855 62.417969 C 1359.1855 88.118973 1379.8771 108.80859 1405.5781 108.80859 L 1628.2578 108.80859 C 1653.9588 108.80859 1674.6504 88.118973 1674.6504 62.417969 L 1674.6504 34.582031 C 1674.6504 8.8810273 1653.9588 -11.808594 1628.2578 -11.808594 L 1405.5781 -11.808594 z M 1164.3398 118.08789 C 1138.6388 118.08789 1117.9492 138.77751 1117.9492 164.47852 L 1117.9492 192.31445 C 1117.9492 218.01546 1138.6388 238.70703 1164.3398 238.70703 L 1257.123 238.70703 C 1282.8241 238.70703 1303.5156 218.01546 1303.5156 192.31445 L 1303.5156 164.47852 C 1303.5156 138.77751 1282.8241 118.08789 1257.123 118.08789 L 1164.3398 118.08789 z M 1461.248 118.08789 C 1435.547 118.08789 1414.8555 138.77751 1414.8555 164.47852 L 1414.8555 192.31445 C 1414.8555 218.01546 1435.547 238.70703 1461.248 238.70703 L 1628.2578 238.70703 C 1653.9588 238.70703 1674.6504 218.01546 1674.6504 192.31445 L 1674.6504 164.47852 C 1674.6504 138.77751 1653.9588 118.08789 1628.2578 118.08789 L 1461.248 118.08789 z M 1164.3398 247.98438 C 1138.6388 247.98438 1117.9492 268.67595 1117.9492 294.37695 L 1117.9492 322.21094 C 1117.9492 347.91194 1138.6388 368.60352 1164.3398 368.60352 L 1257.123 368.60352 C 1282.8241 368.60352 1303.5156 347.91194 1303.5156 322.21094 L 1303.5156 294.37695 C 1303.5156 268.67595 1282.8241 247.98438 1257.123 247.98438 L 1164.3398 247.98438 z M 1535.4746 247.98438 C 1509.7736 247.98438 1489.082 268.67595 1489.082 294.37695 L 1489.082 322.21094 C 1489.082 347.91194 1509.7736 368.60352 1535.4746 368.60352 L 1628.2578 368.60352 C 1653.9588 368.60352 1674.6504 347.91194 1674.6504 322.21094 L 1674.6504 294.37695 C 1674.6504 268.67595 1653.9588 247.98438 1628.2578 247.98438 L 1535.4746 247.98438 z " />
  <path
     id="rect167"
     style="fill:#000000;fill-opacity:1;stroke-width:9.27837"
     d="M 1915.8867 -401.5 C 1890.1857 -401.5 1869.4941 -380.80843 1869.4941 -355.10742 L 1869.4941 -327.27344 C 1869.4941 -301.57243 1890.1857 -280.88086 1915.8867 -280.88086 L 2379.8047 -280.88086 C 2405.5057 -280.88086 2426.1953 -301.57243 2426.1953 -327.27344 L 2426.1953 -355.10742 C 2426.1953 -380.80843 2405.5057 -401.5 2379.8047 -401.5 L 1915.8867 -401.5 z M 1915.8867 -271.60352 C 1890.1857 -271.60352 1869.4941 -250.91194 1869.4941 -225.21094 L 1869.4941 -197.37695 C 1869.4941 -171.67595 1890.1857 -150.98438 1915.8867 -150.98438 L 2008.6699 -150.98438 C 2034.3709 -150.98438 2055.0625 -171.67595 2055.0625 -197.37695 L 2055.0625 -225.21094 C 2055.0625 -250.91194 2034.3709 -271.60352 2008.6699 -271.60352 L 1915.8867 -271.60352 z M 2287.0215 -271.60352 C 2261.3205 -271.60352 2240.6289 -250.91194 2240.6289 -225.21094 L 2240.6289 -197.37695 C 2240.6289 -171.67595 2261.3205 -150.98438 2287.0215 -150.98438 L 2379.8047 -150.98438 C 2405.5057 -150.98438 2426.1953 -171.67595 2426.1953 -197.37695 L 2426.1953 -225.21094 C 2426.1953 -250.91194 2405.5057 -271.60352 2379.8047 -271.60352 L 2287.0215 -271.60352 z M 1915.8867 -141.70703 C 1890.1857 -141.70703 1869.4941 -121.01546 1869.4941 -95.314453 L 1869.4941 -67.478516 C 1869.4941 -41.777512 1890.1857 -21.087891 1915.8867 -21.087891 L 2008.6699 -21.087891 C 2034.3709 -21.087891 2055.0625 -41.777512 2055.0625 -67.478516 L 2055.0625 -95.314453 C 2055.0625 -121.01546 2034.3709 -141.70703 2008.6699 -141.70703 L 1915.8867 -141.70703 z M 2287.0215 -141.70703 C 2261.3205 -141.70703 2240.6289 -121.01546 2240.6289 -95.314453 L 2240.6289 -67.478516 C 2240.6289 -41.777512 2261.3205 -21.087891 2287.0215 -21.087891 L 2379.8047 -21.087891 C 2405.5057 -21.087891 2426.1953 -41.777512 2426.1953 -67.478516 L 2426.1953 -95.314453 C 2426.1953 -121.01546 2405.5057 -141.70703 2379.8047 -141.70703 L 2287.0215 -141.70703 z M 1915.8867 -11.808594 C 1890.1857 -11.808594 1869.4941 8.8810273 1869.4941 34.582031 L 1869.4941 62.417969 C 1869.4941 88.118973 1890.1857 108.80859 1915.8867 108.80859 L 2008.6699 108.80859 C 2034.3709 108.80859 2055.0625 88.118973 2055.0625 62.417969 L 2055.0625 34.582031 C 2055.0625 8.8810273 2034.3709 -11.808594 2008.6699 -11.808594 L 1915.8867 -11.808594 z M 2287.0215 -11.808594 C 2261.3205 -11.808594 2240.6289 8.8810273 2240.6289 34.582031 L 2240.6289 62.417969 C 2240.6289 88.118973 2261.3205 108.80859 2287.0215 108.80859 L 2379.8047 108.80859 C 2405.5057 108.80859 2426.1953 88.118973 2426.1953 62.417969 L 2426.1953 34.582031 C 2426.1953 8.8810273 2405.5057 -11.808594 2379.8047 -11.808594 L 2287.0215 -11.808594 z M 1915.8867 118.08789 C 1890.1857 118.08789 1869.4941 138.77751 1869.4941 164.47852 L 1869.4941 192.31445 C 1869.4941 218.01546 1890.1857 238.70703 1915.8867 238.70703 L 2008.6699 238.70703 C 2034.3709 238.70703 2055.0625 218.01546 2055.0625 192.31445 L 2055.0625 164.47852 C 2055.0625 138.77751 2034.3709 118.08789 2008.6699 118.08789 L 1915.8867 118.08789 z M 2287.0215 118.08789 C 2261.3205 118.08789 2240.6289 138.77751 2240.6289 164.47852 L 2240.6289 192.31445 C 2240.6289 218.01546 2261.3205 238.70703 2287.0215 238.70703 L 2379.8047 238.70703 C 2405.5057 238.70703 2426.1953 218.01546 2426.1953 192.31445 L 2426.1953 164.47852 C 2426.1953 138.77751 2405.5057 118.08789 2379.8047 118.08789 L 2287.0215 118.08789 z M 1915.8867 247.98438 C 1890.1857 247.98438 1869.4941 268.67595 1869.4941 294.37695 L 1869.4941 322.21094 C 1869.4941 347.91194 1890.1857 368.60352 1915.8867 368.60352 L 2379.8047 368.60352 C 2405.5057 368.60352 2426.1953 347.91194 2426.1953 322.21094 L 2426.1953 294.37695 C 2426.1953 268.67595 2405.5057 247.98438 2379.8047 247.98438 L 1915.8867 247.98438 z " />
  <path
     id="rect178"
     style="fill:#000000;fill-opacity:1;stroke-width:9.27837"
     d="M 6425.166 -401.5 C 6399.465 -401.5 6378.7734 -380.80843 6378.7734 -355.10742 L 6378.7734 -327.27344 C 6378.7734 -301.57243 6399.465 -280.88086 6425.166 -280.88086 L 6517.9492 -280.88086 C 6543.6502 -280.88086 6564.3398 -301.57243 6564.3398 -327.27344 L 6564.3398 -355.10742 C 6564.3398 -380.80843 6543.6502 -401.5 6517.9492 -401.5 L 6425.166 -401.5 z M 6796.2988 -401.5 C 6770.5978 -401.5 6749.9062 -380.80843 6749.9062 -355.10742 L 6749.9062 -327.27344 C 6749.9062 -301.57243 6770.5978 -280.88086 6796.2988 -280.88086 L 6889.082 -280.88086 C 6914.783 -280.88086 6935.4746 -301.57243 6935.4746 -327.27344 L 6935.4746 -355.10742 C 6935.4746 -380.80843 6914.783 -401.5 6889.082 -401.5 L 6796.2988 -401.5 z M 6425.166 -271.60352 C 6399.465 -271.60352 6378.7734 -250.91194 6378.7734 -225.21094 L 6378.7734 -197.37695 C 6378.7734 -171.67595 6399.465 -150.98438 6425.166 -150.98438 L 6517.9492 -150.98438 C 6543.6502 -150.98438 6564.3398 -171.67595 6564.3398 -197.37695 L 6564.3398 -225.21094 C 6564.3398 -250.91194 6543.6502 -271.60352 6517.9492 -271.60352 L 6425.166 -271.60352 z M 6796.2988 -271.60352 C 6770.5978 -271.60352 6749.9062 -250.91194 6749.9062 -225.21094 L 6749.9062 -197.37695 C 6749.9062 -171.67595 6770.5978 -150.98438 6796.2988 -150.98438 L 6889.082 -150.98438 C 6914.783 -150.98438 6935.4746 -171.67595 6935.4746 -197.37695 L 6935.4746 -225.21094 C 6935.4746 -250.91194 6914.783 -271.60352 6889.082 -271.60352 L 6796.2988 -271.60352 z M 6425.166 -141.70703 C 6399.465 -141.70703 6378.7734 -121.01546 6378.7734 -95.314453 L 6378.7734 -67.478516 C 6378.7734 -41.777512 6399.465 -21.087891 6425.166 -21.087891 L 6517.9492 -21.087891 C 6543.6502 -21.087891 6564.3398 -41.777512 6564.3398 -67.478516 L 6564.3398 -95.314453 C 6564.3398 -121.01546 6543.6502 -141.70703 6517.9492 -141.70703 L 6425.166 -141.70703 z M 6796.2988 -141.70703 C 6770.5978 -141.70703 6749.9062 -121.01546 6749.9062 -95.314453 L 6749.9062 -67.478516 C 6749.9062 -41.777512 6770.5978 -21.087891 6796.2988 -21.087891 L 6889.082 -21.087891 C 6914.783 -21.087891 6935.4746 -41.777512 6935.4746 -67.478516 L 6935.4746 -95.314453 C 6935.4746 -121.01546 6914.783 -141.70703 6889.082 -141.70703 L 6796.2988 -141.70703 z M 6425.166 -11.808594 C 6399.465 -11.808594 6378.7734 8.8810273 6378.7734 34.582031 L 6378.7734 62.417969 C 6378.7734 88.118973 6399.465 108.80859 6425.166 108.80859 L 6517.9492 108.80859 C 6543.6502 108.80859 6564.3398 88.118973 6564.3398 62.417969 L 6564.3398 34.582031 C 6564.3398 8.8810273 6543.6502 -11.808594 6517.9492 -11.808594 L 6425.166 -11.808594 z M 6796.2988 -11.808594 C 6770.5978 -11.808594 6749.9062 8.8810273 6749.9062 34.582031 L 6749.9062 62.417969 C 6749.9062 88.118973 6770.5978 108.80859 6796.2988 108.80859 L 6889.082 108.80859 C 6914.783 108.80859 6935.4746 88.118973 6935.4746 62.417969 L 6935.4746 34.582031 C 6935.4746 8.8810273 6914.783 -11.808594 6889.082 -11.808594 L 6796.2988 -11.808594 z M 6425.166 118.08789 C 6399.465 118.08789 6378.7734 138.77751 6378.7734 164.47852 L 6378.7734 192.31445 C 6378.7734 218.01546 6399.465 238.70703 6425.166 238.70703 L 6517.9492 238.70703 C 6543.6502 238.70703 6564.3398 218.01546 6564.3398 192.31445 L 6564.3398 164.47852 C 6564.3398 138.77751 6543.6502 118.08789 6517.9492 118.08789 L 6425.166 118.08789 z M 6796.2988 118.08789 C 6770.5978 118.08789 6749.9062 138.77751 6749.9062 164.47852 L 6749.9062 192.31445 C 6749.9062 218.01546 6770.5978 238.70703 6796.2988 238.70703 L 6889.082 238.70703 C 6914.783 238.70703 6935.4746 218.01546 6935.4746 192.31445 L 6935.4746 164.47852 C 6935.4746 138.77751 6914.783 118.08789 6889.082 118.08789 L 6796.2988 118.08789 z M 6425.166 247.98438 C 6399.465 247.98438 6378.7734 268.67595 6378.7734 294.37695 L 6378.7734 322.21094 C 6378.7734 347.91194 6399.465 368.60352 6425.166 368.60352 L 6889.082 368.60352 C 6914.783 368.60352 6935.4746 347.91194 6935.4746 322.21094 L 6935.4746 294.37695 C 6935.4746 268.67595 6914.783 247.98438 6889.082 247.98438 L 6425.166 247.98438 z " />
  <path
     id="rect189"
     style="fill:#000000;fill-opacity:1;stroke-width:9.27837"
     d="M 7176.7109 -392.22266 C 7151.0099 -392.22266 7130.3203 -371.53108 7130.3203 -345.83008 L 7130.3203 -317.99414 C 7130.3203 -292.29314 7151.0099 -271.60352 7176.7109 -271.60352 L 7269.4941 -271.60352 C 7295.1951 -271.60352 7315.8867 -292.29314 7315.8867 -317.99414 L 7315.8867 -345.83008 C 7315.8867 -371.53108 7295.1951 -392.22266 7269.4941 -392.22266 L 7176.7109 -392.22266 z M 7547.8457 -392.22266 C 7522.1447 -392.22266 7501.4531 -371.53108 7501.4531 -345.83008 L 7501.4531 -317.99414 C 7501.4531 -292.29314 7522.1447 -271.60352 7547.8457 -271.60352 L 7640.6289 -271.60352 C 7666.3299 -271.60352 7687.0215 -292.29314 7687.0215 -317.99414 L 7687.0215 -345.83008 C 7687.0215 -371.53108 7666.3299 -392.22266 7640.6289 -392.22266 L 7547.8457 -392.22266 z M 7204.5469 -262.32422 C 7178.8459 -262.32422 7158.1543 -241.6346 7158.1543 -215.93359 L 7158.1543 -188.09766 C 7158.1543 -162.39665 7178.8459 -141.70703 7204.5469 -141.70703 L 7297.3301 -141.70703 C 7323.0311 -141.70703 7343.7227 -162.39665 7343.7227 -188.09766 L 7343.7227 -215.93359 C 7343.7227 -241.6346 7323.0311 -262.32422 7297.3301 -262.32422 L 7204.5469 -262.32422 z M 7520.0098 -262.32422 C 7494.3088 -262.32422 7473.6191 -241.6346 7473.6191 -215.93359 L 7473.6191 -188.09766 C 7473.6191 -162.39665 7494.3088 -141.70703 7520.0098 -141.70703 L 7612.793 -141.70703 C 7638.494 -141.70703 7659.1855 -162.39665 7659.1855 -188.09766 L 7659.1855 -215.93359 C 7659.1855 -241.6346 7638.494 -262.32422 7612.793 -262.32422 L 7520.0098 -262.32422 z M 7232.3809 -132.42773 C 7206.6799 -132.42773 7185.9902 -111.73616 7185.9902 -86.035156 L 7185.9902 -58.201172 C 7185.9902 -32.500168 7206.6799 -11.808594 7232.3809 -11.808594 L 7325.1641 -11.808594 C 7350.8651 -11.808594 7371.5566 -32.500168 7371.5566 -58.201172 L 7371.5566 -86.035156 C 7371.5566 -111.73616 7350.8651 -132.42773 7325.1641 -132.42773 L 7232.3809 -132.42773 z M 7492.1758 -132.42773 C 7466.4748 -132.42773 7445.7832 -111.73616 7445.7832 -86.035156 L 7445.7832 -58.201172 C 7445.7832 -32.500168 7466.4748 -11.808594 7492.1758 -11.808594 L 7584.959 -11.808594 C 7610.66 -11.808594 7631.3516 -32.500168 7631.3516 -58.201172 L 7631.3516 -86.035156 C 7631.3516 -111.73616 7610.66 -132.42773 7584.959 -132.42773 L 7492.1758 -132.42773 z M 7269.4941 -2.53125 C 7243.7931 -2.53125 7223.1035 18.160324 7223.1035 43.861328 L 7223.1035 71.695312 C 7223.1035 97.396316 7243.7931 118.08789 7269.4941 118.08789 L 7362.2773 118.08789 C 7387.9783 118.08789 7408.6699 97.396316 7408.6699 71.695312 L 7408.6699 43.861328 C 7408.6699 18.160324 7387.9783 -2.53125 7362.2773 -2.53125 L 7269.4941 -2.53125 z M 7464.3398 -2.53125 C 7438.6388 -2.53125 7417.9492 18.160324 7417.9492 43.861328 L 7417.9492 71.695312 C 7417.9492 97.396316 7438.6388 118.08789 7464.3398 118.08789 L 7557.123 118.08789 C 7582.8241 118.08789 7603.5156 97.396316 7603.5156 71.695312 L 7603.5156 43.861328 C 7603.5156 18.160324 7582.8241 -2.53125 7557.123 -2.53125 L 7464.3398 -2.53125 z M 7315.8867 127.36523 C 7290.1857 127.36523 7269.4941 148.05681 7269.4941 173.75781 L 7269.4941 201.5918 C 7269.4941 227.2928 7290.1857 247.98438 7315.8867 247.98438 L 7510.7324 247.98438 C 7536.4334 247.98437 7557.123 227.2928 7557.123 201.5918 L 7557.123 173.75781 C 7557.123 148.05681 7536.4334 127.36523 7510.7324 127.36523 L 7315.8867 127.36523 z M 7362.2793 257.26367 C 7336.5783 257.26367 7315.8867 277.95329 7315.8867 303.6543 L 7315.8867 331.49023 C 7315.8867 357.19124 7336.5783 377.88086 7362.2793 377.88086 L 7455.0625 377.88086 C 7480.7635 377.88086 7501.4531 357.19124 7501.4531 331.49023 L 7501.4531 303.6543 C 7501.4531 277.95329 7480.7635 257.26367 7455.0625 257.26367 L 7362.2793 257.26367 z " />
  <path
     id="rect199"
     style="fill:#000000;fill-opacity:1;stroke-width:9.27837"
     d="M 8744.7539 -392.22266 C 8719.0529 -392.22266 8698.3613 -371.53108 8698.3613 -345.83008 L 8698.3613 -317.99414 C 8698.3613 -292.29314 8719.0529 -271.60352 8744.7539 -271.60352 L 8837.5371 -271.60352 C 8863.2381 -271.60352 8883.9277 -292.29314 8883.9277 -317.99414 L 8883.9277 -345.83008 C 8883.9277 -371.53108 8863.2381 -392.22266 8837.5371 -392.22266 L 8744.7539 -392.22266 z M 9115.8867 -392.2207 C 9090.1857 -392.2207 9069.4961 -371.53108 9069.4961 -345.83008 L 9069.4961 -317.99414 C 9069.4961 -292.29314 9090.1857 -271.60352 9115.8867 -271.60352 L 9208.6699 -271.60352 C 9234.3709 -271.60352 9255.0625 -292.29314 9255.0625 -317.99414 L 9255.0625 -345.83008 C 9255.0625 -371.53108 9234.3709 -392.2207 9208.6699 -392.2207 L 9115.8867 -392.2207 z M 8800.4238 -262.32422 C 8774.7228 -262.32422 8754.0312 -241.6346 8754.0312 -215.93359 L 8754.0312 -188.09766 C 8754.0312 -162.39665 8774.7228 -141.70703 8800.4238 -141.70703 L 8893.207 -141.70703 C 8918.908 -141.70703 8939.5977 -162.39665 8939.5977 -188.09766 L 8939.5977 -215.93359 C 8939.5977 -241.6346 8918.908 -262.32422 8893.207 -262.32422 L 8800.4238 -262.32422 z M 9050.9395 -262.32422 C 9025.2384 -262.32422 9004.5469 -241.6346 9004.5469 -215.93359 L 9004.5469 -188.09766 C 9004.5469 -162.39665 9025.2384 -141.70703 9050.9395 -141.70703 L 9143.7227 -141.70703 C 9169.4237 -141.70703 9190.1133 -162.39665 9190.1133 -188.09766 L 9190.1133 -215.93359 C 9190.1133 -241.6346 9169.4237 -262.32422 9143.7227 -262.32422 L 9050.9395 -262.32422 z M 8883.9277 -132.42773 C 8858.2267 -132.42773 8837.5352 -111.73616 8837.5352 -86.035156 L 8837.5352 -58.201172 C 8837.5352 -32.500168 8858.2267 -11.808594 8883.9277 -11.808594 L 9069.4941 -11.808594 C 9095.1951 -11.808594 9115.8867 -32.500168 9115.8867 -58.201172 L 9115.8867 -86.035156 C 9115.8867 -111.73616 9095.1951 -132.42773 9069.4941 -132.42773 L 8883.9277 -132.42773 z M 8883.9277 -2.53125 C 8858.2267 -2.53125 8837.5352 18.160324 8837.5352 43.861328 L 8837.5352 71.695312 C 8837.5352 97.396316 8858.2267 118.08789 8883.9277 118.08789 L 9069.4941 118.08789 C 9095.1951 118.08789 9115.8867 97.396316 9115.8867 71.695312 L 9115.8867 43.861328 C 9115.8867 18.160324 9095.1951 -2.53125 9069.4941 -2.53125 L 8883.9277 -2.53125 z M 8809.7012 127.36523 C 8784.0002 127.36523 8763.3105 148.05681 8763.3105 173.75781 L 8763.3105 201.5918 C 8763.3105 227.2928 8784.0002 247.98437 8809.7012 247.98438 L 8902.4844 247.98438 C 8928.1854 247.98438 8948.877 227.2928 8948.877 201.5918 L 8948.877 173.75781 C 8948.877 148.05681 8928.1854 127.36523 8902.4844 127.36523 L 8809.7012 127.36523 z M 9050.9395 127.36523 C 9025.2384 127.36523 9004.5469 148.05681 9004.5469 173.75781 L 9004.5469 201.5918 C 9004.5469 227.2928 9025.2384 247.98438 9050.9395 247.98438 L 9143.7227 247.98438 C 9169.4237 247.98437 9190.1133 227.2928 9190.1133 201.5918 L 9190.1133 173.75781 C 9190.1133 148.05681 9169.4237 127.36523 9143.7227 127.36523 L 9050.9395 127.36523 z M 8744.7539 257.26367 C 8719.0529 257.26367 8698.3613 277.95329 8698.3613 303.6543 L 8698.3613 331.49023 C 8698.3613 357.19124 8719.0529 377.88086 8744.7539 377.88086 L 8837.5371 377.88086 C 8863.2381 377.88086 8883.9297 357.19124 8883.9297 331.49023 L 8883.9297 303.6543 C 8883.9297 277.95329 8863.2381 257.26367 8837.5371 257.26367 L 8744.7539 257.26367 z M 9115.8867 257.26367 C 9090.1857 257.26367 9069.4961 277.95329 9069.4961 303.6543 L 9069.4961 331.49023 C 9069.4961 357.19124 9090.1857 377.88086 9115.8867 377.88086 L 9208.6699 377.88086 C 9234.3709 377.88086 9255.0625 357.19124 9255.0625 331.49023 L 9255.0625 303.6543 C 9255.0625 277.95329 9234.3709 257.26367 9208.6699 257.26367 L 9115.8867 257.26367 z " />
  <path
     id="rect209"
     style="fill:#000000;fill-opacity:1;stroke-width:9.27837"
     d="M -403.70117 -401.5 C -429.40218 -401.5 -450.09375 -380.80843 -450.09375 -355.10742 L -450.09375 -327.27344 C -450.09375 -301.57243 -429.40218 -280.88086 -403.70117 -280.88086 L -310.91797 -280.88086 C -285.21696 -280.88086 -264.52539 -301.57243 -264.52539 -327.27344 L -264.52539 -355.10742 C -264.52539 -380.80843 -285.21696 -401.5 -310.91797 -401.5 L -403.70117 -401.5 z M -403.70117 -271.60352 C -429.40218 -271.60352 -450.09375 -250.91194 -450.09375 -225.21094 L -450.09375 -197.37695 C -450.09375 -171.67595 -429.40218 -150.98438 -403.70117 -150.98438 L -310.91797 -150.98438 C -285.21696 -150.98438 -264.52539 -171.67595 -264.52539 -197.37695 L -264.52539 -225.21094 C -264.52539 -250.91194 -285.21696 -271.60352 -310.91797 -271.60352 L -403.70117 -271.60352 z M -403.70117 -141.70703 C -429.40218 -141.70703 -450.09375 -121.01546 -450.09375 -95.314453 L -450.09375 -67.478516 C -450.09375 -41.777512 -429.40218 -21.087891 -403.70117 -21.087891 L -310.91797 -21.087891 C -285.21696 -21.087891 -264.52539 -41.777512 -264.52539 -67.478516 L -264.52539 -95.314453 C -264.52539 -121.01546 -285.21696 -141.70703 -310.91797 -141.70703 L -403.70117 -141.70703 z M -403.70117 -11.808594 C -429.40218 -11.808594 -450.09375 8.8810273 -450.09375 34.582031 L -450.09375 62.417969 C -450.09375 88.118973 -429.40218 108.80859 -403.70117 108.80859 L -310.91797 108.80859 C -285.21696 108.80859 -264.52539 88.118973 -264.52539 62.417969 L -264.52539 34.582031 C -264.52539 8.8810273 -285.21696 -11.808594 -310.91797 -11.808594 L -403.70117 -11.808594 z M -403.70117 118.08789 C -429.40218 118.08789 -450.09375 138.77751 -450.09375 164.47852 L -450.09375 192.31445 C -450.09375 218.01546 -429.40218 238.70703 -403.70117 238.70703 L -310.91797 238.70703 C -285.21696 238.70703 -264.52539 218.01546 -264.52539 192.31445 L -264.52539 164.47852 C -264.52539 138.77751 -285.21696 118.08789 -310.91797 118.08789 L -403.70117 118.08789 z M -403.70117 247.98438 C -429.40218 247.98438 -450.09375 268.67595 -450.09375 294.37695 L -450.09375 322.21094 C -450.09375 347.91194 -429.40218 368.60352 -403.70117 368.60352 L 60.216797 368.60352 C 85.917801 368.60352 106.60742 347.91194 106.60742 322.21094 L 106.60742 294.37695 C 106.60742 268.67595 85.917801 247.98438 60.216797 247.98438 L -403.70117 247.98438 z " />
  <path
     id="rect216"
     style="fill:#000000;fill-opacity:1;stroke-width:9.27837"
     d="M -7167.6191 -401.5 C -7193.3201 -401.5 -7214.0098 -380.80843 -7214.0098 -355.10742 L -7214.0098 -327.27344 C -7214.0098 -301.57243 -7193.3201 -280.88086 -7167.6191 -280.88086 L -6703.7012 -280.88086 C -6678.0002 -280.88086 -6657.3086 -301.57243 -6657.3086 -327.27344 L -6657.3086 -355.10742 C -6657.3086 -380.80843 -6678.0002 -401.5 -6703.7012 -401.5 L -7167.6191 -401.5 z M -7167.6191 -271.60352 C -7193.3201 -271.60352 -7214.0098 -250.91194 -7214.0098 -225.21094 L -7214.0098 -197.37695 C -7214.0098 -171.67595 -7193.3201 -150.98438 -7167.6191 -150.98438 L -7074.8359 -150.98438 C -7049.1349 -150.98438 -7028.4434 -171.67595 -7028.4434 -197.37695 L -7028.4434 -225.21094 C -7028.4434 -250.91194 -7049.1349 -271.60352 -7074.8359 -271.60352 L -7167.6191 -271.60352 z M -7167.6191 -141.70703 C -7193.3201 -141.70703 -7214.0098 -121.01546 -7214.0098 -95.314453 L -7214.0098 -67.478516 C -7214.0098 -41.777512 -7193.3201 -21.087891 -7167.6191 -21.087891 L -7074.8359 -21.087891 C -7049.1349 -21.087891 -7028.4434 -41.777512 -7028.4434 -67.478516 L -7028.4434 -95.314453 C -7028.4434 -121.01546 -7049.1349 -141.70703 -7074.8359 -141.70703 L -7167.6191 -141.70703 z M -7167.6191 -11.808594 C -7193.3201 -11.808594 -7214.0098 8.8810273 -7214.0098 34.582031 L -7214.0098 62.417969 C -7214.0098 88.118973 -7193.3201 108.80859 -7167.6191 108.80859 L -7074.8359 108.80859 C -7049.1349 108.80859 -7028.4434 88.118973 -7028.4434 62.417969 L -7028.4434 34.582031 C -7028.4434 8.8810273 -7049.1349 -11.808594 -7074.8359 -11.808594 L -7167.6191 -11.808594 z M -7167.6191 118.08789 C -7193.3201 118.08789 -7214.0098 138.77751 -7214.0098 164.47852 L -7214.0098 192.31445 C -7214.0098 218.01546 -7193.3201 238.70703 -7167.6191 238.70703 L -7074.8359 238.70703 C -7049.1349 238.70703 -7028.4434 218.01546 -7028.4434 192.31445 L -7028.4434 164.47852 C -7028.4434 138.77751 -7049.1349 118.08789 -7074.8359 118.08789 L -7167.6191 118.08789 z M -7167.6191 247.98438 C -7193.3201 247.98438 -7214.0098 268.67595 -7214.0098 294.37695 L -7214.0098 322.21094 C -7214.0098 347.91194 -7193.3201 368.60352 -7167.6191 368.60352 L -6703.7012 368.60352 C -6678.0002 368.60352 -6657.3086 347.91194 -6657.3086 322.21094 L -6657.3086 294.37695 C -6657.3086 268.67595 -6678.0002 247.98438 -6703.7012 247.98438 L -7167.6191 247.98438 z " />
  <path
     id="rect222"
     style="fill:#000000;fill-opacity:1;stroke-width:9.27837"
     d="M 9496.2988 -382.94336 C 9470.5978 -382.94336 9449.9062 -362.25179 9449.9062 -336.55078 L 9449.9062 -308.7168 C 9449.9062 -283.01579 9470.5978 -262.32422 9496.2988 -262.32422 L 9589.082 -262.32422 C 9614.783 -262.32422 9635.4746 -283.01579 9635.4746 -308.7168 L 9635.4746 -336.55078 C 9635.4746 -362.25179 9614.783 -382.94336 9589.082 -382.94336 L 9496.2988 -382.94336 z M 9932.3809 -382.94336 C 9906.6799 -382.94336 9885.9883 -362.25179 9885.9883 -336.55078 L 9885.9883 -308.7168 C 9885.9883 -283.01579 9906.6799 -262.32422 9932.3809 -262.32422 L 10025.164 -262.32422 C 10050.865 -262.32422 10071.557 -283.01579 10071.557 -308.7168 L 10071.557 -336.55078 C 10071.557 -362.25179 10050.865 -382.94336 10025.164 -382.94336 L 9932.3809 -382.94336 z M 9570.5254 -253.04688 C 9544.8244 -253.04687 9524.1328 -232.3553 9524.1328 -206.6543 L 9524.1328 -178.82031 C 9524.1328 -153.11931 9544.8244 -132.42773 9570.5254 -132.42773 L 9663.3086 -132.42773 C 9689.0096 -132.42773 9709.7012 -153.11931 9709.7012 -178.82031 L 9709.7012 -206.6543 C 9709.7012 -232.3553 9689.0096 -253.04688 9663.3086 -253.04688 L 9570.5254 -253.04688 z M 9867.4336 -253.04688 C 9841.7326 -253.04687 9821.041 -232.3553 9821.041 -206.6543 L 9821.041 -178.82031 C 9821.041 -153.11931 9841.7326 -132.42773 9867.4336 -132.42773 L 9960.2168 -132.42773 C 9985.9178 -132.42773 10006.607 -153.11931 10006.607 -178.82031 L 10006.607 -206.6543 C 10006.607 -232.3553 9985.9178 -253.04688 9960.2168 -253.04688 L 9867.4336 -253.04688 z M 9663.3105 -123.15039 C 9637.6095 -123.15039 9616.918 -102.45882 9616.918 -76.757812 L 9616.918 -48.921875 C 9616.918 -23.220871 9637.6095 -2.53125 9663.3105 -2.53125 L 9867.4336 -2.53125 C 9893.1346 -2.53125 9913.8242 -23.220871 9913.8242 -48.921875 L 9913.8242 -76.757812 C 9913.8242 -102.45882 9893.1346 -123.15039 9867.4336 -123.15039 L 9663.3105 -123.15039 z M 9718.9805 6.7480469 C 9693.2795 6.7480469 9672.5879 27.437668 9672.5879 53.138672 L 9672.5879 80.974609 C 9672.5879 106.67561 9693.2795 127.36523 9718.9805 127.36523 L 9811.7637 127.36523 C 9837.4647 127.36523 9858.1543 106.67561 9858.1543 80.974609 L 9858.1543 53.138672 C 9858.1543 27.437668 9837.4647 6.7480469 9811.7637 6.7480469 L 9718.9805 6.7480469 z M 9718.9805 136.64453 C 9693.2795 136.64453 9672.5879 157.33415 9672.5879 183.03516 L 9672.5879 210.87109 C 9672.5879 236.5721 9693.2795 257.26367 9718.9805 257.26367 L 9811.7637 257.26367 C 9837.4647 257.26367 9858.1543 236.5721 9858.1543 210.87109 L 9858.1543 183.03516 C 9858.1543 157.33415 9837.4647 136.64453 9811.7637 136.64453 L 9718.9805 136.64453 z M 9718.9805 266.54102 C 9693.2795 266.54102 9672.5879 287.23259 9672.5879 312.93359 L 9672.5879 340.76758 C 9672.5879 366.46858 9693.2795 387.16016 9718.9805 387.16016 L 9811.7637 387.16016 C 9837.4647 387.16016 9858.1543 366.46858 9858.1543 340.76758 L 9858.1543 312.93359 C 9858.1543 287.23259 9837.4647 266.54102 9811.7637 266.54102 L 9718.9805 266.54102 z " />
  <path
     id="rect230"
     style="fill:#000000;fill-opacity:1;stroke-width:9.27837"
     d="M -10312.795 -392.22266 C -10287.094 -392.22266 -10266.402 -371.53108 -10266.402 -345.83008 L -10266.402 -317.99414 C -10266.402 -292.29314 -10287.094 -271.60352 -10312.795 -271.60352 L -10776.711 -271.60352 C -10802.412 -271.60352 -10823.104 -292.29314 -10823.104 -317.99414 L -10823.104 -345.83008 C -10823.104 -371.53108 -10802.412 -392.22266 -10776.711 -392.22266 L -10312.795 -392.22266 z M -10683.928 -262.32422 C -10658.227 -262.32422 -10637.537 -241.6346 -10637.537 -215.93359 L -10637.537 -188.09766 C -10637.537 -162.39665 -10658.227 -141.70703 -10683.928 -141.70703 L -10776.711 -141.70703 C -10802.412 -141.70703 -10823.104 -162.39665 -10823.104 -188.09766 L -10823.104 -215.93359 C -10823.104 -241.6346 -10802.412 -262.32422 -10776.711 -262.32422 L -10683.928 -262.32422 z M -10526.195 -132.42773 C -10500.494 -132.42773 -10479.805 -111.73616 -10479.805 -86.035156 L -10479.805 -58.201172 C -10479.805 -32.500168 -10500.494 -11.808594 -10526.195 -11.808594 L -10683.928 -11.808594 C -10709.629 -11.808594 -10730.32 -32.500168 -10730.32 -58.201172 L -10730.32 -86.035156 C -10730.32 -111.73616 -10709.629 -132.42773 -10683.928 -132.42773 L -10526.195 -132.42773 z M -10405.578 -2.53125 C -10379.877 -2.53125 -10359.186 18.160324 -10359.186 43.861328 L -10359.186 71.695312 C -10359.186 97.396316 -10379.877 118.08789 -10405.578 118.08789 L -10563.309 118.08789 C -10589.01 118.08789 -10609.701 97.396316 -10609.701 71.695312 L -10609.701 43.861328 C -10609.701 18.160324 -10589.01 -2.53125 -10563.309 -2.53125 L -10405.578 -2.53125 z M -10312.793 127.36523 C -10287.092 127.36523 -10266.402 148.05681 -10266.402 173.75781 L -10266.402 201.5918 C -10266.402 227.2928 -10287.092 247.98437 -10312.793 247.98438 L -10405.576 247.98438 C -10431.277 247.98438 -10451.969 227.2928 -10451.969 201.5918 L -10451.969 173.75781 C -10451.969 148.05681 -10431.277 127.36523 -10405.576 127.36523 L -10312.793 127.36523 z M -10312.795 257.26367 C -10287.094 257.26367 -10266.402 277.95329 -10266.402 303.6543 L -10266.402 331.49023 C -10266.402 357.19124 -10287.094 377.88086 -10312.795 377.88086 L -10776.711 377.88086 C -10802.412 377.88086 -10823.104 357.19124 -10823.104 331.49023 L -10823.104 303.6543 C -10823.104 277.95329 -10802.412 257.26367 -10776.711 257.26367 L -10312.795 257.26367 z "
     transform="scale(-1,1)" />
</svg>
